<?xml version="1.0" standalone="no"?>
<!DOCTYPE svg PUBLIC "-//W3C//DTD SVG 20010904//EN"
 "http://www.w3.org/TR/2001/REC-SVG-20010904/DTD/svg10.dtd">
<svg version="1.0" xmlns="http://www.w3.org/2000/svg"
 width="16.000000pt" height="16.000000pt" viewBox="0 0 16.000000 16.000000"
 preserveAspectRatio="xMidYMid meet">
<metadata>
Created by potrace 1.11, written by Peter Selinger 2001-2013
</metadata>
<g transform="translate(0.000000,16.000000) scale(0.004336,-0.004336)"
fill="#000000" stroke="none">
<path d="M1820 3544 l0 -146 -40 -69 c-136 -231 -230 -558 -276 -954 -23 -191
-25 -685 -5 -887 l13 -138 -55 -72 c-100 -130 -171 -312 -196 -501 -15 -110
-13 -315 3 -425 15 -98 22 -117 32 -86 27 87 74 197 111 259 47 80 143 189
191 217 30 18 30 18 36 -7 4 -14 10 -23 15 -20 5 2 12 -6 15 -20 5 -20 14 -25
56 -31 l50 -7 0 -101 c0 -182 39 -490 69 -543 9 -16 11 -15 20 9 31 81 61 343
61 529 l0 106 52 9 c41 7 54 14 57 29 2 11 9 24 17 28 8 4 14 15 14 22 0 22
10 18 63 -23 110 -87 234 -290 273 -445 10 -43 21 -20 33 72 16 119 14 350 -4
458 -29 177 -98 349 -185 458 -74 94 -70 82 -60 175 6 47 13 191 16 320 18
645 -98 1234 -310 1574 l-46 74 0 141 c0 87 -4 141 -10 141 -6 0 -10 -55 -10
-146z"/>
</g>
</svg>
