<svg xmlns="http://www.w3.org/2000/svg" xmlns:xlink="http://www.w3.org/1999/xlink" viewBox="0 0 549.65 249.86"><defs><linearGradient id="Dégradé_sans_nom_1922" x1="274.82" y1="249.86" x2="274.82" gradientUnits="userSpaceOnUse"><stop offset="0.58" stop-color="#d7d3e2"/><stop offset="0.82" stop-color="#d5d1e1"/><stop offset="0.94" stop-color="#cec9dd"/><stop offset="1" stop-color="#c8c2da"/></linearGradient></defs><title>cloud_back</title><g id="Calque_2" data-name="Calque 2"><g id="Calque_3" data-name="Calque 3"><path d="M527.83,76.88a11.7,11.7,0,1,0-21.73-6c0,.2,0,.39,0,.58a42.68,42.68,0,0,0-40.59,32.41A10.78,10.78,0,0,0,446,106.22a18.46,18.46,0,0,1,8.59,2.52,39.18,39.18,0,0,0-7.15-.53h-1.24l-.54,0h-.08c-2.3.1-4.53.33-6.61.6a51.17,51.17,0,0,0-43,50.51c0,.38,0,.76,0,1.14a48.33,48.33,0,0,0-22.63,14.67c2.06,3.26,3.9,7.1,4,10.47a37.19,37.19,0,0,0-4.37-6.33l-.06-.08-.19-.23-.32-.37-.13-.15-.43-.49-.27-.29-.11-.13h0c-.7-.77-1.4-1.51-2.12-2.22-.37-.36-.74-.72-1.12-1.07l-.13-.12a47.15,47.15,0,0,0-74.88,16.16,37.83,37.83,0,0,0-51.88,10.3c-3-16.65-20.36-29.8-42.23-31.94a60.76,60.76,0,0,0-36,7.33l-.08,0c11.79-12.56,30.5-12.34,43.83-10.05,0-.26,0-.52,0-.78,0-22.4-21.34-40.56-47.67-40.56a56.29,56.29,0,0,0-6.46.38c-7.87-13.8-20.36-22.72-34.42-22.72h-.13s0-.08,0-.12a32.41,32.41,0,0,0-16.45,4.49,32.63,32.63,0,0,1,15.92-8.28c-3.28-17-18.64-29.83-37.1-29.83-.73,0-1.46,0-2.18.07,0-.06,0-.12,0-.18,0-11.59-9.78-21-21.85-21l-.79,0,0-.16a24.87,24.87,0,0,0-9.13,2.21,19,19,0,0,1,9.5-4.73,52.34,52.34,0,0,0,.39-6.32C56.57,17.23,43.91,0,28.29,0S0,17.23,0,38.47,12.66,76.95,28.29,76.95A21.37,21.37,0,0,0,36,75.5,21.4,21.4,0,0,0,47.5,87.56a35.55,35.55,0,0,0-4.66,17.61c0,19.16,15.2,34.87,34.55,36.45a74.16,74.16,0,0,0-2.15,17.81c0,31.55,19.31,57.13,43.12,57.13,9.53,0,18.32-4.1,25.46-11,0,.08,0,.16,0,.23,0,20.66,21.93,37.41,49,37.41A61.86,61.86,0,0,0,212.56,240a35.72,35.72,0,0,0,1.44,9.87h61.37a35.73,35.73,0,0,0,1.45-10.13c0-1,0-2-.13-3,8,.45,15.68,1.14,21.66.1a47.41,47.41,0,0,0,14.38,13h47.4A47.41,47.41,0,0,0,377,233.2a50.13,50.13,0,0,0,34.28,13.19c24,0,43.87-16.12,47.48-37.19a51.17,51.17,0,0,0,39.59-49.83c0-1.18-.05-2.34-.13-3.5a42.68,42.68,0,0,0,29.66-79Z" style="fill-rule:evenodd;fill:url(#Dégradé_sans_nom_1922)"/></g></g></svg>