<svg xmlns="http://www.w3.org/2000/svg" viewBox="0 0 1084.19 471.21"><title>cloud_back_r</title><g id="Calque_2" data-name="Calque 2"><g id="Calque_3" data-name="Calque 3"><g style="opacity:0.5"><path d="M39.6,145.86a22.56,22.56,0,1,1,41.67-17.25,82.3,82.3,0,0,1,89.58,63.08,20.8,20.8,0,0,1,27.73,13.08c-5.8.46-11.9,1.78-16.57,4.85a75.8,75.8,0,0,1,14-1h1.2l1,0,.94,0h.25c4.43.19,8.74.63,12.74,1.16A98.65,98.65,0,0,1,295,307.22c0,.72,0,1.44,0,2.16a93.18,93.18,0,0,1,43.61,28.3c-4,6.27-7.53,13.69-7.65,20.18a71.54,71.54,0,0,1,8.36-12.13l.18-.22.38-.45.62-.71.25-.29.82-.95.52-.56.22-.25h0c1.34-1.48,2.71-2.92,4.08-4.27.71-.69,1.42-1.39,2.16-2.06l.26-.24A90.89,90.89,0,0,1,483.7,350.17a73,73,0,0,1,110.91,30.52c8.71-29.37,40.88-51.94,80.67-55.6A117.3,117.3,0,0,1,744,339.35l0,0c-22.73-24.21-58.8-23.78-84.5-19.38,0-.5,0-1,0-1.51,0-43.19,41.15-78.19,91.9-78.19a108.71,108.71,0,0,1,12.46.72c15.17-26.59,39.24-43.78,66.35-43.78h.25c0-.08,0-.15,0-.23a62.48,62.48,0,0,1,31.7,8.66,62.89,62.89,0,0,0-30.7-16C837.79,157,867.4,132.2,903,132.2c1.41,0,2.82,0,4.21.12,0-.11,0-.23,0-.34,0-22.35,18.86-40.47,42.13-40.47.51,0,1,0,1.53,0l-.06-.32a48,48,0,0,1,17.6,4.25,36.64,36.64,0,0,0-18.32-9.13,100.89,100.89,0,0,1-.75-12.19c0-41,24.41-74.17,54.53-74.17s80.33,31.07,80.33,72V471.21H0V209.75C0,183.62,20.61,160.93,39.6,145.86Z" style="fill:#fff;fill-rule:evenodd"/></g><path d="M39.6,145.86a22.56,22.56,0,1,1,41.67-17.25,82.3,82.3,0,0,1,89.58,63.08,20.8,20.8,0,0,1,27.73,13.08c-5.8.46-11.9,1.78-16.57,4.85a75.8,75.8,0,0,1,14-1h1.2l1,0,.94,0h.25c4.43.19,8.74.63,12.74,1.16A98.65,98.65,0,0,1,295,307.22c0,.72,0,1.44,0,2.16a93.18,93.18,0,0,1,43.61,28.3c-4,6.27-7.53,13.69-7.65,20.18a71.54,71.54,0,0,1,8.36-12.13l.18-.22.38-.45.62-.71.25-.29.82-.95.52-.56.22-.25h0c1.34-1.48,2.71-2.92,4.08-4.27.71-.69,1.42-1.39,2.16-2.06l.26-.24A90.89,90.89,0,0,1,483.7,350.17a73,73,0,0,1,110.91,30.52c8.71-29.37,40.88-51.94,80.67-55.6A117.3,117.3,0,0,1,744,339.35l0,0c-22.73-24.21-58.8-23.78-84.5-19.38,0-.5,0-1,0-1.51,0-43.19,41.15-78.19,91.9-78.19a108.71,108.71,0,0,1,12.46.72c15.17-26.59,39.24-43.78,66.35-43.78h.25c0-.08,0-.15,0-.23a62.48,62.48,0,0,1,31.7,8.66,62.89,62.89,0,0,0-30.7-16C837.79,157,867.4,132.2,903,132.2c1.41,0,2.82,0,4.21.12,0-.11,0-.23,0-.34,0-22.35,18.86-40.47,42.13-40.47.51,0,1,0,1.53,0l-.06-.32a48,48,0,0,1,17.6,4.25,36.64,36.64,0,0,0-18.32-9.13,100.89,100.89,0,0,1-.75-12.19c0-41,24.41-74.17,54.53-74.17s80.33,31.07,80.33,72V471.21H0V209.75C0,183.62,20.61,160.93,39.6,145.86Z" style="fill:#d7d3e2;fill-rule:evenodd"/></g></g></svg>