<svg xmlns="http://www.w3.org/2000/svg" viewBox="0 0 562.4 276.69"><title>cloud_front</title><g id="Calque_2" data-name="Calque 2"><g id="Calque_3" data-name="Calque 3"><path d="M562.4,276.69V68.43a35,35,0,0,0-29.18,50.29c4.63.26,11.6,1.29,15,5-5-1.9-8.47-2.54-13.25-1.9a32.16,32.16,0,0,0-27,38.65A37.1,37.1,0,0,0,479.3,177.4c5.73.91,13.65,3.43,17.33,10.32-7.45-5.47-14.33-7-19.46-7.19A36.31,36.31,0,0,0,443.88,204a56.7,56.7,0,0,0-52.76,18.72,46.52,46.52,0,0,0-28.22-9.62c-25.36,0-46.23,20.72-48.9,47.33a46,46,0,0,0-21.26-5.2,47.25,47.25,0,0,0-34.49,15.25,50.79,50.79,0,0,0-46-17.45c-8.38-19.3-28.37-32.89-51.72-32.89-.66,0-1.31,0-2,0v0c-12.42.73-19.23,4.35-24.18,6.25,4-5.55,17.28-9.35,23.73-10.91a25,25,0,0,0-29.61-19.81A54.17,54.17,0,0,0,76.93,125.2c-.78,0-1.55,0-2.32.06a51,51,0,0,0-23.69,7.85c5.43-6.39,16-10.24,22.19-12.07a54.22,54.22,0,0,0-12.72-19,54.51,54.51,0,0,0,.67-8.52A54.1,54.1,0,0,0,34.5,47a29.35,29.35,0,0,0,5.74-17.47A29.49,29.49,0,0,0,0,2V276.69Z" style="fill:#efebf7;fill-rule:evenodd"/></g></g></svg>