<svg xmlns="http://www.w3.org/2000/svg" viewBox="0 0 580.24 81.03"><title>cloud_r</title><g id="Calque_2" data-name="Calque 2"><g id="Calque_3" data-name="Calque 3"><path d="M0,0V74.82c27,0,55.17-11.82,64.75-28.71a50.44,50.44,0,0,1-9.15-3,70.48,70.48,0,0,0,10.19,1l1.75,0c16.49,0,30.74-6.8,37.55-16.69,1,21.43,23.16,38.55,50.34,38.55,13.54,0,25.84-4.25,34.89-11.17,13.25-8.92,18.05-19,18.05-19a62.36,62.36,0,0,1-15,21.77C200,63.11,208.71,66,219.1,66A45.37,45.37,0,0,0,229,64.92C234.45,74.42,246.49,81,260.47,81c13.62,0,25.4-6.28,31-15.39a52.06,52.06,0,0,0,19.58,3.73c17.61,0,32.4-7.83,39.08-19.87-5.6-4.59-7.41-12.19-7.41-12.19s4.29,6.46,8.64,9.93a42,42,0,0,0,25.29,8,42.87,42.87,0,0,0,22.35-6c6.16,14.48,23.38,24.91,43.67,24.91,14.1,0,26.73-5,35.18-13a47.55,47.55,0,0,0,7.67-10s-1.24,3.7-5.54,11a60.79,60.79,0,0,0,24.72,5.13c18.18,0,34.13-7.62,43.07-19.06,7.24,4.39,22.67,8,32.48,8V0Z" style="fill:#efebf7;fill-rule:evenodd"/></g></g></svg>