<svg xmlns="http://www.w3.org/2000/svg" viewBox="0 0 1084.19 522.93"><title>cloud_front_r</title><g id="Calque_2" data-name="Calque 2"><g id="Calque_1-2" data-name="Calque 1"><path d="M63.08,194.54a64.3,64.3,0,0,1-6.83,28.9c-8.93.48-22.36,2.43-28.87,9.46,9.54-3.57,16.32-4.79,25.54-3.58,30.22,4,53.51,29.33,53.51,59.94A59.33,59.33,0,0,1,105,302a71.82,71.82,0,0,1,55.17,31.82c-11,1.72-26.32,6.45-33.41,19.42,14.36-10.29,27.62-13.24,37.51-13.53,29.39.52,54.35,18.71,64.19,44.15a112.71,112.71,0,0,1,19-1.64,110.39,110.39,0,0,1,82.71,36.87,91.1,91.1,0,0,1,54.4-18.1c48.89,0,89.13,39,94.27,89.08a90.47,90.47,0,0,1,41-9.79c25.9,0,49.36,11,66.48,28.69a99.57,99.57,0,0,1,88.61-32.84c16.15-36.33,54.69-61.9,99.7-61.9,1.27,0,2.52,0,3.77.09,0,0,0-.06,0-.09,23.95,1.38,37.06,8.19,46.61,11.76-7.7-10.45-33.31-17.6-45.75-20.54,4.21-21.77,23.79-38.25,47.32-38.25a49.52,49.52,0,0,1,9.76,1,99.6,99.6,0,0,1-4.83-30.71c0-56.27,46.73-101.89,104.37-101.89,1.5,0,3,0,4.47.11A99.85,99.85,0,0,1,986,250.51c-10.48-12-30.77-19.28-42.78-22.71a101.92,101.92,0,0,1,24.53-35.7,100.21,100.21,0,0,1-1.3-16c0-37.32,20.56-69.93,51.21-87.68a54.38,54.38,0,0,1-11.06-32.89c0-30.65,25.45-55.5,56.85-55.5a57.89,57.89,0,0,1,20.72,3.82V522.93H0V128.78C35.22,131,63.08,159.59,63.08,194.54Z" style="fill:#efebf7;fill-rule:evenodd"/></g></g></svg>