<svg xmlns="http://www.w3.org/2000/svg" viewBox="0 0 1084.19 522.93"><title>cloud_front</title><g id="Calque_2" data-name="Calque 2"><g id="Calque_1-2" data-name="Calque 1"><path d="M1021.11,194.54a64.3,64.3,0,0,0,6.83,28.9c8.93.48,22.36,2.43,28.87,9.46-9.54-3.57-16.32-4.79-25.54-3.58-30.22,4-53.51,29.33-53.51,59.94a59.33,59.33,0,0,0,1.4,12.8A71.82,71.82,0,0,0,924,333.86c11,1.72,26.32,6.45,33.41,19.42C943,343,929.79,340.05,919.89,339.76c-29.39.52-54.35,18.71-64.19,44.15a112.71,112.71,0,0,0-19-1.64A110.39,110.39,0,0,0,754,419.15a91.1,91.1,0,0,0-54.4-18.1c-48.89,0-89.13,39-94.27,89.08a90.47,90.47,0,0,0-41-9.79c-25.9,0-49.36,11-66.48,28.69a99.57,99.57,0,0,0-88.61-32.84c-16.15-36.33-54.69-61.9-99.7-61.9-1.27,0-2.52,0-3.77.09,0,0,0-.06,0-.09-23.95,1.38-37.06,8.19-46.61,11.76,7.7-10.45,33.31-17.6,45.75-20.54-4.21-21.77-23.79-38.25-47.32-38.25a49.52,49.52,0,0,0-9.76,1,99.6,99.6,0,0,0,4.83-30.71c0-56.27-46.73-101.89-104.37-101.89-1.5,0-3,0-4.47.11a99.85,99.85,0,0,0-45.66,14.77c10.48-12,30.77-19.28,42.78-22.71a101.92,101.92,0,0,0-24.53-35.7,100.21,100.21,0,0,0,1.3-16c0-37.32-20.56-69.93-51.21-87.68A54.38,54.38,0,0,0,77.57,55.5C77.57,24.85,52.11,0,20.72,0A57.89,57.89,0,0,0,0,3.82V522.93H1084.19V128.78C1049,131,1021.11,159.59,1021.11,194.54Z" style="fill:#efebf7;fill-rule:evenodd"/></g></g></svg>