<svg xmlns="http://www.w3.org/2000/svg" xmlns:xlink="http://www.w3.org/1999/xlink" viewBox="0 0 676.73 450.75"><defs><clipPath id="clip-path"><polygon points="443.79 127.07 550.06 193.36 649.69 139.74 545.32 74.42 443.79 127.07" style="fill:none"/></clipPath><linearGradient id="Dégradé_sans_nom_15" x1="253.15" y1="8.37" x2="253.15" y2="-79.53" gradientTransform="matrix(-1, 0, 0, 1, 821.54, 107.28)" gradientUnits="userSpaceOnUse"><stop offset="0" stop-color="#fff" stop-opacity="0"/><stop offset="1" stop-color="#fff"/></linearGradient></defs><title>launch_pad</title><g id="Calque_2" data-name="Calque 2"><g id="Calque_4" data-name="Calque 4"><path d="M530,59.8a2.41,2.41,0,1,0,4.83,0c0-3.22,5.19-3.31,5.19,0s5.41,3.15,5.41,0c0-2.8,4.34-3.54,4.34,0s4.56,3.63,4.56,0a2.53,2.53,0,1,1,5,0" style="fill:none;stroke:#918cb5;stroke-miterlimit:10"/><rect x="530.33" y="82.4" width="27.95" height="1.68" transform="translate(1088.62 166.47) rotate(-180)" style="fill:#918cb5"/><polygon points="676.73 89.02 0 441.97 0 450.75 676.73 450.75 676.73 89.02" style="fill:#634dac"/><polygon points="469.03 173.12 548.96 222.21 623.89 182.29 544.22 133.54 469.03 173.12" style="fill:#3b346b"/><polygon points="460.49 152.51 549.56 207.1 632.33 162.6 545.45 108.44 460.49 152.51" style="fill:#5e4faa"/><polygon points="443.79 127.07 550.06 193.36 649.69 139.74 545.32 74.42 443.79 127.07" style="fill:#f4f4f4"/><g style="clip-path:url(#clip-path)"><path d="M498.22,133.22H503l11.63,8H520v-13.6h3.43v13.6h5.37l11.63-8h4.79l-13.14,9.07v24.58h22a76.24,76.24,0,0,1,1-9c-13.22-9.44-7.82-25.08-7.82-25.08s3.2,8.83,11.5,11.92c.16-.41.33-.81.5-1.21l.5.25.45-1.33s1.6-.06,3.27-.1c0-.12,0-.24,0-.36,0-1,0-2,.08-3q0-.51.06-1c0-.67.11-1.34.18-2s.15-1.31.25-1.94.2-1.25.32-1.84a19.59,19.59,0,0,1,1.61-5.12c1.6,3.11,2.44,9.55,2.31,15.32,1.69.05,3.33.12,3.33.12l.44,1.33.51-.25c.16.4.32.8.48,1.21,8.34-3,11.64-11.85,11.64-11.85s5.21,15.67-8.12,25c2.78,16.93,0,36.35-10.84,47.18l0,6.38-.22.33-.17-.33,0-6.4a38.38,38.38,0,0,1-9-16.22H532.07v19.65h-8.17v15.26h3.88v1.41H516.44v-1.41h3.88V208.55h-8.19V142.82Zm18,62.44h10l-10-6.9Zm0-21.67h10l-10-6.9Zm0-21.67h10l-10-6.9v6.9ZM528,164.93H518l10,6.9Zm0,21.67H518l10,6.9Zm0-1.79v-6.9l-10,6.9Zm0-21.67v-6.9l-10,6.9Zm-11.84-9V161l10-6.9Zm0,21.67v6.9l10-6.9Zm0,21.67v6.9l10-6.9Zm11.84,9v-6.9l-10,6.9Zm28-18.8q-.28-1.06-.53-2.13a2.05,2.05,0,0,1-1-.71h-5.11c-.74,1-2.81.9-3.68,0h-6.16a3.61,3.61,0,0,1-4.45,0h-3.1v2.85Zm-2-19.08h-22V182a2.66,2.66,0,0,1,2.57,1h5.51c.79-1.42,4.25-1.36,5.07,0h4.64c.64-1.6,3.7-1.64,4.33,0H555A69.12,69.12,0,0,1,554,168.61Zm-36-25.36h0l10,6.9v-6.9H518Z" style="opacity:0.1"/></g><path d="M499.49,133.23H503l11.63-11.63h6.63v19.7h2.17V121.6h6.63l11.63,11.63h3.52l-13.14-13.14V83.65h26.21V82H532.07V60.29h25.37V58.47H532.07v-5h25.37V52.6H532.07V24.14h-8.17V2h3.88V0H517.7V2h3.88v22.1h-8.19v95.18Zm29.8-94.84L518,27.13h11.26Zm0,17.53H518l11.26-11.26Zm0,13.85L518,58.51h11.26Zm0,17.53H518L529.28,76Zm0,13.85L518,89.89h11.26ZM518,118.69h0l11.26-11.26h0v11.25H518Zm-1.86-13.1h11.26l-11.26,11.26h0V105.6Zm0-13.85L527.44,103H516.18Zm0-17.53h11.26L516.18,85.46Zm0-13.85,11.26,11.26H516.18Zm0-17.53h11.26L516.18,54.08Zm0-13.85,11.26,11.26H516.18Z" style="fill:#ada4d8"/><path d="M498.22,133.23h3.52l11.63-11.63H520v19.7h2.17V121.6h6.63l11.63,11.63h3.52l-13.14-13.14V84.49h27.48V82.82H530.81V62.37a2.72,2.72,0,0,0,1.57.49,2.56,2.56,0,0,0,2.49-1.72h5.06a2.36,2.36,0,0,0,.76,1.08,3.12,3.12,0,0,0,2,.64,2.9,2.9,0,0,0,2.81-1.72h4.19a2.49,2.49,0,0,0,2.4,2,2.33,2.33,0,0,0,1.71-.73,2.72,2.72,0,0,0,.65-1.24h3V59.32h-2.8a2.22,2.22,0,0,1,.58-1,2.26,2.26,0,0,1,1.57-.61,2.3,2.3,0,0,1,2.34,2.47h.42a2.74,2.74,0,0,0-2.76-2.89,2.62,2.62,0,0,0-2.6,2h-4.35a2.09,2.09,0,0,0-2.08-1.69,2.63,2.63,0,0,0-1.75.69,2.51,2.51,0,0,0-.66,1h-5.29a2.39,2.39,0,0,0-.73-1.09,2.94,2.94,0,0,0-1.9-.66,2.76,2.76,0,0,0-2.68,1.75h-3.92v-5h26.64v-.91H530.81V24.14h-8.17V2h3.88V0H516.44V2h3.88v22.1h-8.19v95.18ZM539.6,59.32h-4.42A2.36,2.36,0,0,1,537.41,58,2.3,2.3,0,0,1,539.6,59.32Zm9.8,0h-3.61a2.12,2.12,0,0,1,.49-.68,2.2,2.2,0,0,1,1.47-.58A1.66,1.66,0,0,1,549.4,59.32Zm.67,1.82H554A2,2,0,0,1,552,62.69,2,2,0,0,1,550.07,61.14Zm-9.7,0H545a2.54,2.54,0,0,1-2.34,1.3,2.7,2.7,0,0,1-1.7-.55A1.94,1.94,0,0,1,540.37,61.14Zm-9.57.69v-.69h3.61a2.14,2.14,0,0,1-2,1.3,2.27,2.27,0,0,1-1.52-.55ZM528,38.39,516.76,27.13H528Zm0,17.53H516.76L528,44.67Zm0,13.85L516.76,58.51H528Zm0,17.53H516.76L528,76Zm0,13.85L516.76,89.89H528Zm-11.25,17.53h0L528,107.43h0v11.25H516.77Zm-1.86-13.1h11.26l-11.26,11.26h0V105.6Zm0-13.85L526.18,103H514.92Zm0-17.53h11.26L514.92,85.46Zm0-13.85,11.26,11.26H514.92Zm0-17.53h11.26L514.92,54.08Zm0-13.85,11.26,11.26H514.92Z" style="fill:#634dac"/><path d="M566,114.63l6.74.69-1,4.46S568,120,566,120s-5.7-.2-5.7-.2l-1-4.45Z" style="fill:#58575b"/><path d="M570.92,115.55c10,3.11,13.83,18.09,13.83,18.09s5.36-23.34-8.7-36.83Z" style="fill:#c8c4ce"/><path d="M561,115.59c-9.93,3.19-13.68,18.2-13.68,18.2s-5.55-23.3,8.4-36.9Z" style="fill:#c8c4ce"/><path d="M565.4,29.11l0-9.26.17-.48.22.48,0,9.23c14.08,20.42,14.6,62,6.83,89.15-2.38-1.9-6.61-2-6.66-2h0c-.05,0-4.28.13-6.64,2C551.34,91.2,551.5,49.65,565.4,29.11Z" style="fill:#e5e5e5"/><path d="M564.76,116.33c6.09-30.46.85-87.54.85-87.54,6.59,24.73,8.48,60.19,3.59,87.88Z" style="fill:url(#Dégradé_sans_nom_15)"/><circle cx="565.73" cy="60.01" r="6.97" transform="translate(-0.24 2.32) rotate(-0.23)" style="fill:#fff"/><path d="M558.29,60h0a7.46,7.46,0,1,1,2.45,5.48A7.46,7.46,0,0,1,558.29,60Zm7.42-6.51A6.49,6.49,0,0,0,559.25,60h0a6.48,6.48,0,1,0,6.46-6.51Z" style="fill:#807f84"/><path d="M565.88,104.34c3.45,4.84,3.11,29.49.15,37.8C563,133.85,562.47,109.21,565.88,104.34Z" style="fill:#c8c4ce"/><path d="M565.88,104.34c-3.41,4.87-2.87,29.51.15,37.8" style="fill:#adabb2"/></g></g></svg>