<svg xmlns="http://www.w3.org/2000/svg" xmlns:xlink="http://www.w3.org/1999/xlink" viewBox="0 0 676.73 361.73"><defs><clipPath id="clip-path"><polygon points="530.4 171.61 406.48 248.92 290.3 186.38 412 110.22 530.4 171.61" style="fill:none"/></clipPath><linearGradient id="Dégradé_sans_nom_15" x1="380.71" y1="50.36" x2="380.71" y2="-52.13" gradientTransform="translate(4.56 107.58) rotate(0.23)" gradientUnits="userSpaceOnUse"><stop offset="0" stop-color="#fff" stop-opacity="0"/><stop offset="1" stop-color="#fff"/></linearGradient></defs><title>launch_pad</title><g id="Calque_2" data-name="Calque 2"><g id="Calque_4" data-name="Calque 4"><path d="M429.91,93.18c0,3.77-5.63,3.75-5.63,0s-6.05-3.85-6.05,0-6.31,3.67-6.31,0c0-3.26-5.06-4.13-5.06,0s-5.32,4.23-5.32,0a3,3,0,1,0-5.89,0" style="fill:none;stroke:#918cb5;stroke-miterlimit:10"/><rect x="396.88" y="119.52" width="32.59" height="1.95" style="fill:#918cb5"/><polygon points="0 0 676.73 352.95 676.73 361.73 0 361.73 0 0" style="fill:#634dac"/><polygon points="500.96 225.31 407.76 282.56 320.38 236 413.29 179.16 500.96 225.31" style="fill:#3b346b"/><polygon points="510.92 201.29 407.06 264.94 310.54 213.05 411.85 149.89 510.92 201.29" style="fill:#5e4faa"/><polygon points="530.4 171.61 406.48 248.92 290.3 186.38 412 110.22 530.4 171.61" style="fill:#f4f4f4"/><g style="clip-path:url(#clip-path)"><path d="M450.71,190v76.65h-9.55v17.8h4.52v1.64H432.45v-1.64H437v-17.8h-9.52V243.72H399.09c-2.15,7.33-5.59,13.9-10.5,18.92l0,7.46-.2.39-.26-.38,0-7.44c-12.6-12.62-15.89-35.27-12.64-55-15.54-10.93-9.46-29.2-9.46-29.2s3.85,10.27,13.57,13.82c.18-.47.37-.94.56-1.41.19.1.39.2.59.29l.51-1.55s1.92-.09,3.89-.15c-.14-6.73.83-14.23,2.7-17.86a22.85,22.85,0,0,1,1.88,6c.14.69.26,1.41.37,2.14s.21,1.49.29,2.26.15,1.55.21,2.34q0,.59.07,1.18c.06,1.18.09,2.37.09,3.54,0,.14,0,.28,0,.42,1.94,0,3.81.12,3.81.12l.53,1.55c.2-.09.4-.19.59-.29.2.46.39.93.58,1.41,9.68-3.61,13.41-13.9,13.41-13.9s6.29,18.24-9.12,29.25A88.9,88.9,0,0,1,401.76,218h25.69V189.36l-15.32-10.58h5.58l13.56,9.36h6.26V172.28h4v15.86h6.26l13.56-9.36h5.58ZM446,243.54l-11.66,8H446Zm0-25.27-11.66,8H446ZM446,201v-8l-11.66,8H446Zm-13.8,22.78,11.66-8H432.18Zm0,25.27,11.66-8H432.18ZM443.83,239l-11.66-8v8Zm0-25.27-11.66-8v8Zm-9.51-10.55,11.66,8v-8Zm0,25.27,11.66,8v-8Zm0,25.27,11.66,8v-8Zm9.51,10.55-11.66-8v8ZM427.45,242.3V239h-3.61c-1.12,1.18-4.09,1.21-5.19,0h-7.19c-1,1-3.42,1.22-4.29,0h-6a2.4,2.4,0,0,1-1.12.83q-.28,1.26-.61,2.49Zm-26.75-5.46h1c.73-1.91,4.3-1.87,5,0h5.41c1-1.59,5-1.65,5.91,0h6.42a3.1,3.1,0,0,1,3-1.2V220.06h-25.6A80.6,80.6,0,0,1,400.7,236.84Zm31.48-46.36h0v8l11.66-8H432.18Z" style="opacity:0.1"/></g><path d="M449.23,162.58v-111h-9.55V25.82h4.52V23.44H432.45v2.38H437V51.59h-9.52V84.77H397.87v1.06h29.58v5.79H397.87v2.12h29.58V119H396.88v2h30.57v42.49L412.13,178.8h4.11l13.56-13.56h7.73v23h2.53v-23h7.73l13.56,13.56h4.11ZM430.7,55.08h13.13L430.7,68.21Zm0,20.45,13.13,13.13H430.7Zm0,16.15h13.13L430.7,104.8Zm0,20.45,13.13,13.13H430.7Zm0,16.15h13.13L430.7,141.39Zm13.13,33.59H430.7V148.72h0l13.13,13.13h0ZM446,146.57v13.12h0l-13.13-13.13H446Zm0-3H432.85L446,130.41Zm0-20.45L432.85,110H446Zm0-16.15H432.85L446,93.82Zm0-20.44L432.85,73.37H446Zm0-16.15H432.85L446,57.23Z" style="fill:#ada4d8"/><path d="M450.71,162.58v-111h-9.55V25.82h4.52V23.44H433.92v2.38h4.52V51.59h-9.52V85.76H397.87v1.06h31.06v5.79h-4.57a3.22,3.22,0,0,0-3.13-2,3.43,3.43,0,0,0-2.22.77,2.79,2.79,0,0,0-.86,1.27H412a2.92,2.92,0,0,0-.77-1.16,3.06,3.06,0,0,0-2-.81,2.44,2.44,0,0,0-2.43,2h-5.08a3.06,3.06,0,0,0-3-2.33,3.19,3.19,0,0,0-3.22,3.37h.49a2.69,2.69,0,0,1,2.73-2.88,2.64,2.64,0,0,1,1.84.71,2.59,2.59,0,0,1,.67,1.13h-3.27v2.12h3.55a3.17,3.17,0,0,0,.76,1.44,2.72,2.72,0,0,0,2,.85,2.91,2.91,0,0,0,2.8-2.3h4.89a3.38,3.38,0,0,0,3.27,2,3.63,3.63,0,0,0,2.29-.75,2.75,2.75,0,0,0,.88-1.25h5.9a3,3,0,0,0,2.9,2,3.17,3.17,0,0,0,1.83-.57V120h-32v2h32v41.51L413.61,178.8h4.11l13.56-13.56H439v23h2.53v-23h7.73l13.56,13.56h4.11ZM421.22,91.06a2.75,2.75,0,0,1,2.6,1.55h-5.15A2.68,2.68,0,0,1,421.22,91.06Zm-12.06.07a2.57,2.57,0,0,1,1.71.68,2.47,2.47,0,0,1,.58.8h-4.21A1.94,1.94,0,0,1,409.16,91.13Zm-5,5.41a2.34,2.34,0,0,1-2.24-1.81h4.53A2.38,2.38,0,0,1,404.17,96.54Zm12.94-.93a3.14,3.14,0,0,1-2,.64,3,3,0,0,1-2.73-1.52h5.37A2.27,2.27,0,0,1,417.11,95.6Zm11.76,0a2.64,2.64,0,0,1-1.77.64,2.5,2.5,0,0,1-2.38-1.51h4.21v.81Zm3.31-40.52h13.13L432.18,68.21Zm0,20.45,13.13,13.13H432.18Zm0,16.15h13.13L432.18,104.8Zm0,20.45,13.13,13.13H432.18Zm0,16.15h13.13l-13.13,13.13Zm13.13,33.59H432.18V148.72h0l13.13,13.13h0Zm2.15-15.28v13.12h0l-13.13-13.13h13.13Zm0-3H434.33l13.13-13.13Zm0-20.45L434.33,110h13.13Zm0-16.15H434.33l13.13-13.13Zm0-20.44L434.33,73.37h13.13Zm0-16.15H434.33l13.13-13.13Z" style="fill:#634dac"/><path d="M387.94,157.11l-7.86.81,1.18,5.2s4.31.28,6.65.29,6.65-.24,6.65-.24l1.22-5.19Z" style="fill:#58575b"/><path d="M382.15,158.18C370.54,161.81,366,179.27,366,179.27s-6.25-27.22,10.14-42.95Z" style="fill:#c8c4ce"/><path d="M393.72,158.23c11.58,3.72,15.95,21.22,15.95,21.22s6.48-27.17-9.79-43Z" style="fill:#c8c4ce"/><path d="M388.59,57.38l0-10.8-.2-.56-.26.56,0,10.77c-16.42,23.81-17,72.29-8,104,2.78-2.21,7.71-2.32,7.77-2.32h0c.06,0,5,.15,7.75,2.38C405,129.78,404.79,81.34,388.59,57.38Z" style="fill:#e5e5e5"/><path d="M389.34,159.1c-7.1-35.52-1-102.07-1-102.07-7.68,28.83-9.89,70.19-4.18,102.48Z" style="fill:url(#Dégradé_sans_nom_15)"/><circle cx="388.2" cy="93.42" r="8.12" transform="translate(293.19 481.23) rotate(-89.77)" style="fill:#fff"/><path d="M394,99.84a8.68,8.68,0,1,1,2.85-6.39h0A8.66,8.66,0,0,1,394,99.84Zm-10.91-12a7.56,7.56,0,1,0,12.64,5.63h0a7.56,7.56,0,0,0-12.64-5.63Z" style="fill:#807f84"/><path d="M388,145.11c-4,5.64-3.63,34.39-.18,44.08C391.37,179.53,392,150.79,388,145.11Z" style="fill:#c8c4ce"/><path d="M388,145.11c4,5.68,3.34,34.42-.18,44.08" style="fill:#adabb2"/></g></g></svg>