<svg xmlns="http://www.w3.org/2000/svg" xmlns:xlink="http://www.w3.org/1999/xlink" viewBox="0 0 640.5 240.15"><defs><linearGradient id="Dégradé_sans_nom_37" x1="404.19" y1="240.15" x2="404.19" y2="145.47" gradientTransform="matrix(-1, 0, 0, 1, 722.83, 0)" gradientUnits="userSpaceOnUse"><stop offset="0" stop-color="#e0e1e2"/><stop offset="0.33" stop-color="#bfc0c3"/><stop offset="0.52" stop-color="#f1f2f3"/><stop offset="1" stop-color="#c1c2c5"/></linearGradient></defs><title>mac_bottom</title><g id="Calque_2" data-name="Calque 2"><g id="Calque_4" data-name="Calque 4"><path d="M221.16,234.51c1.66-1.49,17.1-14.61,21.92-18.93s5.11-13.69,5.11-13.69l5.26-56.42H383.82l5.26,56.42s.29,9.37,5.11,13.69S414.44,233,416.1,234.51s.17,3.16-.83,3.65a28.6,28.6,0,0,1-11.29,2H233.29a28.6,28.6,0,0,1-11.29-2C221,237.66,219.5,236,221.16,234.51Z" style="fill:url(#Dégradé_sans_nom_37)"/><rect width="640.5" height="145.47" rx="2.55" ry="2.55" transform="translate(640.5 145.47) rotate(-180)" style="fill:#e4e4e2"/><rect width="640.5" height="138.1" style="fill:#083952"/></g></g></svg>