<svg xmlns="http://www.w3.org/2000/svg" viewBox="0 0 640.5 138.41"><title>mac_top</title><g id="Calque_2" data-name="Calque 2"><g id="Calque_4" data-name="Calque 4"><rect width="640.5" height="138.41" rx="2.55" ry="2.55" transform="translate(640.5 138.41) rotate(-180)" style="fill:#e4e4e2"/><circle cx="10.39" cy="9.3" r="3.1" style="fill:#ff6364"/><circle cx="20.27" cy="9.3" r="3.1" style="fill:#ffcb44"/><circle cx="30.16" cy="9.3" r="3.1" style="fill:#74c94a"/><polygon points="105.29 5.43 104.71 4.86 100.27 9.3 100.27 9.3 100.27 9.31 104.71 13.75 105.29 13.17 101.42 9.3 105.29 5.43" style="fill:#c8c8c6"/><polygon points="117.52 5.43 118.09 4.86 122.54 9.3 122.54 9.3 122.54 9.31 118.09 13.75 117.52 13.17 121.39 9.3 117.52 5.43" style="fill:#c8c8c6"/><rect x="138.84" y="4.22" width="365.91" height="10.16" rx="5.08" ry="5.08" style="fill:#f4f4f2"/><rect y="18.57" width="640.5" height="119.85" style="fill:#083952"/></g></g></svg>