<svg xmlns="http://www.w3.org/2000/svg" xmlns:xlink="http://www.w3.org/1999/xlink" viewBox="0 0 823.31 261.2"><defs><linearGradient id="Dégradé_sans_nom_29" x1="411.65" y1="115.39" x2="411.65" y2="261.2" gradientUnits="userSpaceOnUse"><stop offset="0" stop-color="#ddd6f0"/><stop offset="1" stop-color="#fff"/></linearGradient><linearGradient id="Dégradé_sans_nom_20" x1="413.35" y1="129.54" x2="413.35" y2="123.1" gradientUnits="userSpaceOnUse"><stop offset="0" stop-color="#dbd4ed"/><stop offset="1" stop-color="#edeaf7"/></linearGradient><linearGradient id="Dégradé_sans_nom_20-2" x1="426.2" y1="155.16" x2="426.2" y2="150.03" xlink:href="#Dégradé_sans_nom_20"/><linearGradient id="Dégradé_sans_nom_20-3" x1="384.63" y1="205.29" x2="384.63" y2="190.29" xlink:href="#Dégradé_sans_nom_20"/><linearGradient id="Dégradé_sans_nom_20-4" x1="301.77" y1="173.67" x2="301.77" y2="168.89" xlink:href="#Dégradé_sans_nom_20"/><linearGradient id="Dégradé_sans_nom_20-5" x1="225.17" y1="145.73" x2="225.17" y2="125.48" gradientTransform="matrix(0.98, 0.15, -0.18, 0.86, 33.96, 21.42)" xlink:href="#Dégradé_sans_nom_20"/><linearGradient id="Dégradé_sans_nom_20-6" x1="81.27" y1="176.14" x2="81.27" y2="154.3" gradientTransform="matrix(0.96, 0.24, -0.28, 0.81, 58.45, 42.91)" xlink:href="#Dégradé_sans_nom_20"/><linearGradient id="Dégradé_sans_nom_20-7" x1="173.44" y1="67.05" x2="173.44" y2="61.59" gradientTransform="matrix(0.98, 0.14, -0.2, 0.71, 33.29, 78.82)" xlink:href="#Dégradé_sans_nom_20"/><linearGradient id="Dégradé_sans_nom_20-8" x1="266.77" y1="5.22" x2="266.77" y2="0.53" gradientTransform="matrix(0.99, 0.07, -0.1, 0.67, 15.45, 115.9)" xlink:href="#Dégradé_sans_nom_20"/><linearGradient id="Dégradé_sans_nom_20-9" x1="341.63" y1="127.15" x2="341.63" y2="123.25" gradientTransform="translate(11.98 -28.81) rotate(4.91)" xlink:href="#Dégradé_sans_nom_20"/><linearGradient id="Dégradé_sans_nom_20-10" x1="491.11" y1="-86.95" x2="491.11" y2="-89.77" gradientTransform="matrix(0.04, 1, -0.6, 0.06, 407.84, -361.33)" xlink:href="#Dégradé_sans_nom_20"/><linearGradient id="Dégradé_sans_nom_20-11" x1="491.48" y1="112.9" x2="491.48" y2="93.89" gradientTransform="matrix(0.03, 1, -0.85, 0.04, 561.55, -333.53)" xlink:href="#Dégradé_sans_nom_20"/><linearGradient id="Dégradé_sans_nom_20-12" x1="523.79" y1="155.24" x2="523.79" y2="135.79" gradientTransform="matrix(0.03, 1, -0.9, 0.04, 635.58, -344.87)" xlink:href="#Dégradé_sans_nom_20"/><linearGradient id="Dégradé_sans_nom_20-13" x1="574.95" y1="196.45" x2="574.95" y2="191.99" xlink:href="#Dégradé_sans_nom_20"/><linearGradient id="Dégradé_sans_nom_20-14" x1="570.77" y1="162.91" x2="570.77" y2="158.49" xlink:href="#Dégradé_sans_nom_20"/><linearGradient id="Dégradé_sans_nom_20-15" x1="540.41" y1="0.23" x2="540.41" y2="-2.52" gradientTransform="matrix(0.03, 1, -0.7, 0.04, 519.9, -401.28)" xlink:href="#Dégradé_sans_nom_20"/><linearGradient id="Dégradé_sans_nom_20-16" x1="581.27" y1="37.95" x2="581.27" y2="30.24" gradientTransform="matrix(0.09, 0.99, -0.77, 0.12, 543.54, -448.64)" xlink:href="#Dégradé_sans_nom_20"/><linearGradient id="Dégradé_sans_nom_20-17" x1="603.55" y1="86.79" x2="603.55" y2="78.97" gradientTransform="matrix(0.06, 1, -0.82, 0.08, 626.75, -449.81)" xlink:href="#Dégradé_sans_nom_20"/><linearGradient id="Dégradé_sans_nom_20-18" x1="678.1" y1="51.99" x2="678.1" y2="39.38" gradientTransform="matrix(0.14, 0.98, -0.75, 0.18, 601.04, -522.93)" xlink:href="#Dégradé_sans_nom_20"/><linearGradient id="Dégradé_sans_nom_20-19" x1="115.41" y1="97.09" x2="115.41" y2="83.31" gradientTransform="matrix(0.96, 0.2, -0.28, 0.68, 49.32, 73.39)" xlink:href="#Dégradé_sans_nom_20"/><linearGradient id="Dégradé_sans_nom_20-20" x1="682.96" y1="182.65" x2="682.96" y2="163.34" gradientTransform="matrix(0.12, 0.99, -0.94, 0.12, 761.83, -506.16)" xlink:href="#Dégradé_sans_nom_20"/><linearGradient id="Dégradé_sans_nom_20-21" x1="728.22" y1="7.89" x2="728.22" y2="4.43" gradientTransform="matrix(0.12, 0.98, -0.68, 0.18, 614.75, -556.42)" xlink:href="#Dégradé_sans_nom_20"/><linearGradient id="Dégradé_sans_nom_20-22" x1="764.15" y1="145.09" x2="764.15" y2="123.62" gradientTransform="matrix(0.23, 0.96, -0.84, 0.27, 683.55, -581.89)" xlink:href="#Dégradé_sans_nom_20"/><linearGradient id="Dégradé_sans_nom_20-23" x1="872.94" y1="-29.2" x2="872.94" y2="-33.34" gradientTransform="matrix(0.16, 0.96, -0.58, 0.27, 648.88, -631.55)" xlink:href="#Dégradé_sans_nom_20"/><linearGradient id="Dégradé_sans_nom_20-24" x1="336.86" y1="120.61" x2="336.86" y2="96.51" gradientTransform="matrix(1, 0.04, -0.05, 0.87, 7.65, 46.97)" xlink:href="#Dégradé_sans_nom_20"/><linearGradient id="Dégradé_sans_nom_15" x1="582.5" y1="-105" x2="582.5" y2="-228.1" gradientTransform="translate(61.1 127.11) rotate(10.81)" gradientUnits="userSpaceOnUse"><stop offset="0" stop-color="#fff" stop-opacity="0"/><stop offset="1" stop-color="#fff"/></linearGradient></defs><title>moon</title><g id="Calque_2" data-name="Calque 2"><g id="Calque_4" data-name="Calque 4"><path d="M823.31,261.2v-62C727,148.09,579.24,115.39,413.58,115.39,245.69,115.39,96.2,149,0,201.25V261.2Z" style="fill:url(#Dégradé_sans_nom_29)"/><ellipse cx="413.35" cy="128.51" rx="19.03" ry="3.22" style="fill:#c5bfdb"/><ellipse cx="426.28" cy="153.37" rx="10.32" ry="3.34" style="fill:#c5bfdb"/><ellipse cx="384.63" cy="198.63" rx="13.21" ry="8.34" style="fill:#c5bfdb"/><ellipse cx="301.77" cy="171.72" rx="4.48" ry="2.83" style="fill:#c5bfdb"/><ellipse cx="231.85" cy="173.24" rx="20.51" ry="9.49" transform="translate(-26.9 43.57) rotate(-10.15)" style="fill:#c5bfdb"/><ellipse cx="90.49" cy="197.6" rx="25.83" ry="8.36" transform="translate(-51.55 33.11) rotate(-16.21)" style="fill:#c5bfdb"/><ellipse cx="190.57" cy="149.71" rx="7.62" ry="2.18" transform="matrix(0.98, -0.2, 0.2, 0.98, -25.87, 40.7)" style="fill:#c5bfdb"/><ellipse cx="280.35" cy="136.72" rx="9.75" ry="1.92" transform="translate(-12.55 29.48) rotate(-5.89)" style="fill:#c5bfdb"/><ellipse cx="341.63" cy="127.39" rx="11.16" ry="1.7" transform="translate(-9.66 29.73) rotate(-4.91)" style="fill:#c5bfdb"/><ellipse cx="478.77" cy="124.17" rx="1.24" ry="4.75" transform="translate(326.79 594.86) rotate(-86.64)" style="fill:#c5bfdb"/><ellipse cx="489.31" cy="162.71" rx="9.28" ry="24.3" transform="translate(308.17 645.51) rotate(-87.83)" style="fill:#c5bfdb"/><ellipse cx="522.37" cy="185.08" rx="9.77" ry="20.04" transform="translate(317.63 700.06) rotate(-87.83)" style="fill:#c5bfdb"/><ellipse cx="574.95" cy="194.55" rx="4.26" ry="2.56" style="fill:#c5bfdb"/><ellipse cx="570.81" cy="161.05" rx="5.33" ry="2.56" style="fill:#c5bfdb"/><ellipse cx="535.13" cy="139.07" rx="1.33" ry="4.54" transform="matrix(0.04, -1, 1, 0.04, 375.88, 668.55)" style="fill:#c5bfdb"/><ellipse cx="569.63" cy="133.28" rx="3.09" ry="18.97" transform="translate(370.86 683.49) rotate(-83.31)" style="fill:#c5bfdb"/><ellipse cx="597.68" cy="158.92" rx="3.69" ry="10.39" transform="translate(392.54 742.35) rotate(-85.52)" style="fill:#c5bfdb"/><ellipse cx="658.57" cy="153.5" rx="5.1" ry="20.14" transform="translate(390.16 774.17) rotate(-79.73)" style="fill:#c5bfdb"/><ellipse cx="135.02" cy="158.39" rx="22.61" ry="3.08" transform="translate(-38.84 43.98) rotate(-16.21)" style="fill:#c5bfdb"/><ellipse cx="680.13" cy="194.03" rx="9.96" ry="16.4" transform="translate(402.65 844.59) rotate(-82.82)" style="fill:#c5bfdb"/><ellipse cx="699.98" cy="161.64" rx="1.51" ry="4.41" transform="translate(416.18 821.61) rotate(-79.73)" style="fill:#c5bfdb"/><ellipse cx="749.94" cy="185.22" rx="8.49" ry="25.52" transform="translate(369.37 857.44) rotate(-74.36)" style="fill:#c5bfdb"/><ellipse cx="807.95" cy="200.95" rx="1.39" ry="4.44" transform="translate(396.58 924.78) rotate(-74.36)" style="fill:#c5bfdb"/><ellipse cx="413.35" cy="126.32" rx="19.03" ry="3.22" style="fill:url(#Dégradé_sans_nom_20)"/><ellipse cx="426.2" cy="152.59" rx="9.98" ry="2.56" style="fill:url(#Dégradé_sans_nom_20-2)"/><ellipse cx="384.63" cy="197.79" rx="13.21" ry="7.5" style="fill:url(#Dégradé_sans_nom_20-3)"/><ellipse cx="301.77" cy="171.28" rx="4.48" ry="2.39" style="fill:url(#Dégradé_sans_nom_20-4)"/><ellipse cx="231.71" cy="172.13" rx="20.19" ry="8.38" transform="translate(-26.71 43.53) rotate(-10.15)" style="fill:url(#Dégradé_sans_nom_20-5)"/><ellipse cx="90.37" cy="196.56" rx="25.4" ry="7.32" transform="matrix(0.96, -0.28, 0.28, 0.96, -51.27, 33.03)" style="fill:url(#Dégradé_sans_nom_20-6)"/><ellipse cx="190.57" cy="149.1" rx="7.4" ry="1.7" transform="translate(-25.75 40.68) rotate(-11.42)" style="fill:url(#Dégradé_sans_nom_20-7)"/><ellipse cx="280.52" cy="136.21" rx="9.75" ry="1.43" transform="translate(-12.49 29.5) rotate(-5.89)" style="fill:url(#Dégradé_sans_nom_20-8)"/><ellipse cx="341.63" cy="125.2" rx="11.16" ry="1.7" transform="translate(-9.47 29.73) rotate(-4.91)" style="fill:url(#Dégradé_sans_nom_20-9)"/><ellipse cx="478.67" cy="123.76" rx="0.84" ry="4.75" transform="translate(327.09 594.37) rotate(-86.64)" style="fill:url(#Dégradé_sans_nom_20-10)"/><ellipse cx="489.27" cy="161.51" rx="8.08" ry="24.3" transform="translate(309.33 644.32) rotate(-87.83)" style="fill:url(#Dégradé_sans_nom_20-11)"/><ellipse cx="522.33" cy="184.06" rx="8.75" ry="20.04" transform="translate(318.6 699.04) rotate(-87.83)" style="fill:url(#Dégradé_sans_nom_20-12)"/><ellipse cx="574.95" cy="194.22" rx="4.26" ry="2.23" style="fill:url(#Dégradé_sans_nom_20-13)"/><ellipse cx="570.77" cy="160.7" rx="5.36" ry="2.21" style="fill:url(#Dégradé_sans_nom_20-14)"/><ellipse cx="535.1" cy="138.7" rx="0.96" ry="4.5" transform="matrix(0.04, -1, 1, 0.04, 376.22, 668.17)" style="fill:url(#Dégradé_sans_nom_20-15)"/><ellipse cx="569.71" cy="132.65" rx="2.45" ry="18.97" transform="translate(371.55 683.01) rotate(-83.31)" style="fill:url(#Dégradé_sans_nom_20-16)"/><ellipse cx="597.63" cy="158.37" rx="3.15" ry="10.31" transform="translate(393.04 741.8) rotate(-85.52)" style="fill:url(#Dégradé_sans_nom_20-17)"/><ellipse cx="658.77" cy="152.46" rx="4.05" ry="19.74" transform="translate(391.34 773.5) rotate(-79.73)" style="fill:url(#Dégradé_sans_nom_20-18)"/><ellipse cx="134.97" cy="157.51" rx="22.2" ry="2.22" transform="translate(-38.6 43.93) rotate(-16.21)" style="fill:url(#Dégradé_sans_nom_20-19)"/><ellipse cx="680.43" cy="193.06" rx="8.97" ry="16.3" transform="translate(403.87 844.04) rotate(-82.82)" style="fill:url(#Dégradé_sans_nom_20-20)"/><ellipse cx="700.13" cy="161.24" rx="1.08" ry="4.32" transform="translate(416.7 821.42) rotate(-79.73)" style="fill:url(#Dégradé_sans_nom_20-21)"/><ellipse cx="750.28" cy="184.22" rx="7.44" ry="25.32" transform="translate(370.57 857.03) rotate(-74.36)" style="fill:url(#Dégradé_sans_nom_20-22)"/><ellipse cx="808" cy="200.62" rx="1.06" ry="4.34" transform="translate(396.93 924.6) rotate(-74.36)" style="fill:url(#Dégradé_sans_nom_20-23)"/><ellipse cx="339" cy="156.31" rx="32.43" ry="11.49" transform="translate(-6.95 16.06) rotate(-2.69)" style="fill:#c5bfdb"/><ellipse cx="339.05" cy="155.24" rx="32.43" ry="10.43" transform="translate(-6.9 16.06) rotate(-2.69)" style="fill:url(#Dégradé_sans_nom_20-24)"/><path d="M656.88,131.06l-9.45-.78.25,6.4s5,1.28,7.79,1.81,7.91,1.19,7.91,1.19l2.59-5.85Z" style="fill:#58575b"/><path d="M649.81,131c-14.51,1.72-23.69,21.35-23.69,21.35s-1.38-33.51,21.44-48.47Z" style="fill:#c8c4ce"/><path d="M663.46,133.65c12.85,7,14.15,28.57,14.15,28.57s13.64-30.65-2.07-53Z" style="fill:#c8c4ce"/><path d="M679.63,13.45,682.07.7,682,0l-.43.6L679.1,13.3c-24.64,24.49-36,81.59-32.33,121,3.77-2,9.61-1,9.68-1h0c.07,0,5.86,1.27,8.62,4.52C683,102.55,693.48,45.31,679.63,13.45Z" style="fill:#e5e5e5"/><path d="M658.09,133.71C657.54,90.2,679.43,13,679.43,13,664,45.32,652.28,93.66,651.9,133Z" style="fill:url(#Dégradé_sans_nom_15)"/><circle cx="671.23" cy="55.91" r="9.76" transform="translate(490.4 704.74) rotate(-79.19)" style="fill:#fff"/><path d="M676.7,64.79a10.43,10.43,0,1,1,4.78-6.92h0A10.41,10.41,0,0,1,676.7,64.79Zm-10.23-16.6a9.08,9.08,0,1,0,13.68,9.43h0a9.08,9.08,0,0,0-13.68-9.43Z" style="fill:#807f84"/><path d="M661.8,105.3c-6,5.77-11.86,39.8-9.93,52C658.16,146.67,665.25,112.88,661.8,105.3Z" style="fill:#c8c4ce"/><path d="M661.8,105.3c3.45,7.58-3.64,41.37-9.93,52" style="fill:#adabb2"/><path d="M618,197.63l-3,3.58.08.23.46-.13,3-3.57c19.81-3.2,32.56-13.36,36.46-23.59,22.61-1.72,22.6-11.89,22.6-11.89s-8.56,4.07-21.43,3.56c0-.27-.07-.54-.11-.81h-.81v-.86l-4.78-1c1.31-2.25,1.93-4.44,1.41-5.89a23.62,23.62,0,0,0-7.41,4.72l-4.89-.87-1.23.62-.58-.27-1.24.55c-10-3.94-10.36-9.74-10.36-9.74s-14.57,7.34-.71,16.14C613.62,177.12,608.29,188.7,618,197.63Z" style="opacity:0.1"/></g></g></svg>