<svg xmlns="http://www.w3.org/2000/svg" viewBox="0 0 460.01 498.16"><title>profil</title><g id="Calque_2" data-name="Calque 2"><g id="Calque_3" data-name="Calque 3"><path d="M.63,497.66s11.1-49,12.76-67.19S33.91,307.57,56.87,297.79c27-10.08,96.11-26,96.11-26l114.66-26.32s3.73-.34,7.23,5.82,22.2,26.11,23.33,27.34c3.7,1.13,116.17,43.81,134.13,52.24,36.3,14.15,25.77,166.84,25.77,166.84Z" style="fill:#333;stroke:#000;stroke-miterlimit:10"/><path d="M258.79,228.56c5.8,1.23,7.94,15,11.21,25,.84,11.37-13.37,36.92-13.37,36.92s-.61-.66-2.06,1.86c-3.05,5.29-31.68,72.73-38.77,102.84-12.15,27.31-15.61,43.37-28.41,70.8-2.29,4-10.81,31.71-10.81,31.71H110.43C108.93,423.48,107,348.41,140.3,286,175.51,220.08,258.79,228.56,258.79,228.56Z" style="fill:#fff;stroke:#1d1e1c;stroke-miterlimit:10"/><path d="M71.94,88.26s-5,1.66-14.5-2.95c-6.85-3.32-10-9-11.21-15.64-11.82-5.05-7.92-14.42.65-19C41.8,42.19,46.07,34.57,49,27.75c1.83,3.56,1.28,9.74,3.51,7.1,2.73-3.2,5.84-2.73,9.59-5.35C64,28.2,63.45,23.3,65.62,22c4.39-2.7,11-3.28,15.07-7.92C87,6.77,91.67,12.77,95,11.83c37.62-10.54,84.09-22,128.21,4.12,71.55,44.88,40.54,168,33.58,195.48-7.76,30.68-118.18-38.57-118.18-38.57Z"/><path d="M71.94,88.26s-3.6,23.72,1.37,44.27a47,47,0,0,1,.75,9.62s-1.63,17,7.21,22.88,10.2,13.15,9.23,22.65a39.59,39.59,0,0,0,1.64,16.65c-.57,1.74-1.81,5.7,3.22,9.27,1.47,5.58,11.16,22.94,11.16,22.94s1.07,8.59,15.9,24.26c3.07,3.15,6.68,12.67,8.68,16.05s5.73,12.22,24.8,12.17c2.68,7.46,18.63,14,23.22,16.16,67.53-42.15,84.63-54,79.8-75.46-2.83-23.45-3.63-31-3-44.29,9.48-9.77,23.69-50.92,7.58-70.16-7.91-7.61-14.43-4.1-18.11-.68-1.31-2.83-2.76-.46-2.76-.46s-10.55,7.68-15.37,33.38c-.69,3.33-7.34,4.47-12.74,6.43-1.41-2.64-4.36-10.14-8.67-18.91-.9-1.83,3,0,2-1.94-1.19-2.23-7.31-8.19-8.65-10.43s-2-3-3.52-5.17c-1.08-1.54-2.54-4.07-4.78-4.34-2.69-.32-11.19-8.19-13-10s4.38-1.32,2.29-2.75c-2.26-1.55-4.79-3.3-.31-5-2.65-1-13.54-1.19-14.82-2.63-1.71-1.93-.07-3.8-.14-6.15-.08-2.57,2.16-4.73,2.86-7.16.86-2.95.13-6,.23-7.68.15-2.45-10.54-9.67-6.94-12.06,6.43-4.29,5.78-6.45-16.12-1.93-14.5,3-28.37,13.79-42.26,20.32-1.25.59.69-5.76-.55-5.16C93,77.33,80.31,84,71.94,88.26Z" style="fill:#efc7be;stroke:#000;stroke-miterlimit:10"/><path d="M136.15,161.92c-3.68-.5-7.9-6.23-5.44-11.15,1.73-.61,4.16-1.08,5.56-.65C137,152.31,136.83,161.62,136.15,161.92Z" style="fill:#3d79bc"/><path d="M91.41,173.66s-5.92-3.42-5.55-8.58c1.53-1.25,6.6,0,6.6,0Z" style="fill:#3d79bc"/><ellipse cx="135.56" cy="154.98" rx="3.48" ry="3.95" transform="translate(-8.24 7.61) rotate(-3.12)" style="fill:#1d1d1b"/><path d="M92.46,165.08l-4.63-.66a7,7,0,0,0,3.84,7.51C92,168.85,92.46,165.08,92.46,165.08Z" style="fill:#1d1d1b"/><path d="M153.58,151.16S142,163.3,136.15,161.92a27.69,27.69,0,0,0,.12-11.8S151.12,149.31,153.58,151.16Z" style="fill:#fff"/><path d="M91.41,173.66s4.75.78,7.53-1.36a10.87,10.87,0,0,0,1.21-5.67A15.28,15.28,0,0,0,91,164.77C91.67,166.63,91.41,173.66,91.41,173.66Z" style="fill:#fff"/><ellipse cx="88.18" cy="167.26" rx="0.53" ry="1.82" style="fill:#fff"/><ellipse cx="89.59" cy="170.18" rx="0.25" ry="0.87" style="fill:#fff"/><ellipse cx="132.39" cy="154.44" rx="0.53" ry="1.82" style="fill:#fff"/><ellipse cx="133.18" cy="157.47" rx="0.27" ry="0.91" style="fill:#fff"/><ellipse cx="135.09" cy="158.86" rx="0.22" ry="0.76" style="fill:#fff"/><path d="M137.06,355.84s-13.71-27.26-18.59-54.36c17.65-4.57,49.79,12.45,49.79,12.45s7.09-7.72,15-.95c5.83-6,29.15-18.28,29.15-18.28s19.85,14.65,14.81,48.53c-.06,6.32.08,7.48-.68,7.89s-20.89-6.44-26.85-9.52-10.89-9.66-11.78-10.14c-1.16.21-8,.41-9.66,1.23a12.28,12.28,0,0,1-5,1c-.57,1.37-15,15-23.17,17.19Z" style="fill:#3d3d3d;stroke:#1d1d1b;stroke-miterlimit:10"/><path d="M127.07,153.07a.87.87,0,0,1,.17-.32A2.89,2.89,0,0,1,128,152a4.64,4.64,0,0,1,.62-.4,5,5,0,0,1,.78-.39,15.09,15.09,0,0,1,2-.72,23.59,23.59,0,0,1,2.38-.56,26.4,26.4,0,0,1,2.68-.4c.93-.11,1.9-.21,2.88-.23s2-.08,3-.08,2,0,3,.07,1.93.12,2.86.18,1.82.19,2.66.29,1.64.2,2.38.32c2.94.48,4.87,1,4.87,1s-2,.17-5,.17c-1.48,0-3.2,0-5,0-.92,0-1.87,0-2.83,0s-1.94,0-2.92,0-2,0-2.91,0c-.48,0-1,0-1.43,0l-1.39,0c-.91,0-1.79.06-2.62.12s-1.61.15-2.33.2-1.38.19-1.94.33a6.41,6.41,0,0,0-.79.2,4.25,4.25,0,0,0-.66.22,3.29,3.29,0,0,0-.86.45A.85.85,0,0,0,127.07,153.07Z" style="fill:#1d1d1b"/><path d="M100.15,166.63l-.77-.17c-.48-.11-1.18-.31-2-.47l-1.32-.29-1.49-.27c-.51-.12-1.05-.15-1.59-.24s-1.1-.13-1.65-.18-1.11-.07-1.65-.1-1.08,0-1.6,0-1,0-1.49.11-.92.11-1.33.18a14.62,14.62,0,0,0-2,.46c-.47.15-.73.26-.73.26a4.69,4.69,0,0,1,.65-.44,10.63,10.63,0,0,1,1.91-.84,11.23,11.23,0,0,1,1.36-.36A14.61,14.61,0,0,1,88,164c.54,0,1.1-.1,1.67-.09s1.15,0,1.72.07,1.15.11,1.71.22a16.6,16.6,0,0,1,1.63.33,21.37,21.37,0,0,1,2.81.88c.82.28,1.43.64,1.89.83Z"/><path d="M125.8,150.16l.23-.33.27-.4a2,2,0,0,1,.42-.5,9.25,9.25,0,0,1,1.36-1.18c.28-.2.57-.45.9-.64l1.07-.6a12.76,12.76,0,0,1,1.2-.57c.42-.18.85-.4,1.31-.55l1.41-.51c.49-.17,1-.28,1.51-.43,1-.31,2.11-.47,3.21-.69s2.23-.33,3.37-.37l1.7-.09,1.69,0c1.12,0,2.21.15,3.27.22s2.07.33,3,.49l2.66.67c.81.26,1.54.53,2.19.76a17.17,17.17,0,0,1,1.64.7l1.4.66-1.47-.48a16.91,16.91,0,0,0-1.68-.53c-.66-.16-1.41-.35-2.21-.57l-2.65-.49c-1-.1-1.95-.23-3-.33s-2.11-.16-3.2-.13h-1.65l-1.66.1c-1.11,0-2.2.22-3.29.32s-2.14.32-3.14.59l-1.49.36-1.4.41c-.46.12-.89.31-1.31.46a12.3,12.3,0,0,0-1.2.49,17.9,17.9,0,0,0-2,1,9,9,0,0,0-1.42,1,5.69,5.69,0,0,0-.8.81Z" style="fill:#1d1d1b"/><path d="M81.79,163.71s.09-.3.26-.82a3.13,3.13,0,0,1,.16-.42l.28-.47c.1-.17.21-.35.34-.54l.49-.5a5.88,5.88,0,0,1,1.25-1,8.81,8.81,0,0,1,1.6-.7l.88-.25c.3-.07.61-.11.92-.16a17.75,17.75,0,0,1,1.89-.17c.63,0,1.27,0,1.89.08a15.17,15.17,0,0,1,1.8.25c.58.08,1.13.25,1.66.37s1,.3,1.45.46a16.22,16.22,0,0,1,2.06.94c.47.28.73.46.73.46l-.8-.28c-.25-.09-.57-.17-.93-.27s-.78-.18-1.22-.29c-.9-.19-1.94-.39-3.07-.51l-.86-.1-.88-.06c-.59-.06-1.2,0-1.8,0a16.79,16.79,0,0,0-1.78.13c-.29,0-.58.07-.86.12l-.82.19a5.16,5.16,0,0,0-.78.24,5.8,5.8,0,0,0-.73.27,6.67,6.67,0,0,0-1.22.72l-.51.39c-.14.14-.26.29-.38.42l-.34.38a3,3,0,0,0-.23.38C82,163.45,81.79,163.71,81.79,163.71Z" style="fill:#1d1d1b"/><path d="M112.79,142.93s.5-.66,1.42-1.76c.24-.27.47-.59.78-.9l1-1,1.19-1.12c.43-.39.91-.72,1.4-1.11l1.55-1.19c.56-.37,1.15-.73,1.76-1.12a39.46,39.46,0,0,1,3.92-2.22c.69-.38,1.42-.68,2.15-1s1.47-.68,2.23-1c1.54-.55,3.08-1.18,4.68-1.64.8-.23,1.59-.49,2.39-.7l2.4-.58c.79-.21,1.59-.34,2.38-.47s1.57-.29,2.34-.39c1.55-.2,3-.38,4.47-.43.71,0,1.4-.1,2.08-.09l1.95,0c1.24,0,2.39.19,3.39.28s1.87.36,2.58.5,1.24.4,1.61.52l.56.2-2.24-.13-2.55.06-1.56.13c-.55,0-1.12.07-1.72.16-1.2.15-2.49.31-3.85.55s-2.78.54-4.25.8-3,.68-4.5,1.08l-2.3.61c-.77.21-1.53.47-2.29.69-1.55.41-3,1-4.53,1.48s-2.94,1.07-4.3,1.67-2.72,1.13-3.94,1.78l-1.8.88-1.64.91c-.52.3-1,.57-1.51.85l-1.3.83-1.17.73c-.36.23-.67.49-1,.7C113.47,142.47,112.79,142.93,112.79,142.93Z" style="fill:#1d1d1b"/><path d="M94.77,155.09s-1.34-.35-3.27-.94l-3.28-1c-.59-.2-1.22-.36-1.83-.56L84.5,152l-1.89-.54c-.63-.15-1.24-.37-1.84-.5s-1.18-.32-1.73-.42l-1.57-.35c-.49-.08-.94-.18-1.34-.27s-.76-.12-1-.18c-.59-.1-.93-.18-.93-.18s.33-.09.92-.22a9.7,9.7,0,0,1,1.08-.19c.42,0,.89-.09,1.41-.11s1.08,0,1.68,0a17.78,17.78,0,0,1,1.86.17c.64.08,1.3.21,2,.34s1.33.33,2,.5a31.59,31.59,0,0,1,3.78,1.41A27.46,27.46,0,0,1,92,153.1,18.47,18.47,0,0,1,94.77,155.09Z" style="fill:#1d1d1b"/><path d="M266.63,141.07a46.31,46.31,0,0,0,.09-5.28,44.74,44.74,0,0,0-.57-6,25.92,25.92,0,0,0-2.29-7.41,12.78,12.78,0,0,0-2.59-3.52,9.43,9.43,0,0,0-4-2.25,10.74,10.74,0,0,0-1.18-.25,12.12,12.12,0,0,0-1.22-.1c-.42,0-.8,0-1.2.06a12.18,12.18,0,0,0-1.19.27,8.79,8.79,0,0,0-4.06,2.89c-2.19,2.74-3.43,6.3-4.29,9.93a65.36,65.36,0,0,0-1.51,11.27c0,.95-.11,1.91-.06,2.83s.18,1.87.33,2.8a35.58,35.58,0,0,0,1.25,5.48c.07.22.16.42.24.61s.2.43.29.68a9.66,9.66,0,0,1,.42,1.42,9,9,0,0,1,.19,2.92,6.56,6.56,0,0,1-.91,2.79c-.52.86-1.25,1.46-1.66,2.17a9.49,9.49,0,0,0-1.3,4.85c-.05.86,0,1.68-.08,2.59l-.3,2.5a31.61,31.61,0,0,0,0,9.18,10.51,10.51,0,0,0,1.4,3.75,5.48,5.48,0,0,0,2.73,2.24,10,10,0,0,0,5.88-.12c.8-.25,1.52-.46,2.12-.72s1.13-.43,1.53-.63l1.25-.58-1.23.63c-.4.22-.9.44-1.51.7a20.64,20.64,0,0,1-2.11.79,10.27,10.27,0,0,1-6.06.28,5.91,5.91,0,0,1-3-2.33,10.8,10.8,0,0,1-1.55-3.91,32.21,32.21,0,0,1-.2-9.36l.26-2.49c.08-.78,0-1.68,0-2.55A10.09,10.09,0,0,1,242,161.9c.51-.86,1.22-1.45,1.63-2.16a5.67,5.67,0,0,0,.77-2.42,8.13,8.13,0,0,0-.19-2.63,8.77,8.77,0,0,0-.39-1.28c-.07-.19-.18-.42-.27-.62s-.21-.47-.28-.7a36.33,36.33,0,0,1-1.33-5.64c-.15-1-.29-1.9-.36-2.91s0-2,0-2.93a66.3,66.3,0,0,1,1.6-11.43,26,26,0,0,1,4.53-10.26,9.41,9.41,0,0,1,4.5-3.12,12.66,12.66,0,0,1,1.33-.28c.45,0,.93-.07,1.35,0a12.82,12.82,0,0,1,1.29.13,11.47,11.47,0,0,1,1.26.29,10.12,10.12,0,0,1,4.25,2.48,13.38,13.38,0,0,1,2.64,3.73,25,25,0,0,1,2.16,7.61,45,45,0,0,1,.4,6.07c0,1.68-.08,3-.15,3.9S266.63,141.07,266.63,141.07Z" style="fill:#1d1d1b"/><path d="M254.24,110.74a3.71,3.71,0,0,0-.43,0,9.09,9.09,0,0,0-1.18.19l-.82.21-.94.34a13.69,13.69,0,0,0-2.1,1.12,15.12,15.12,0,0,0-2.21,1.73,20.41,20.41,0,0,0-2,2.39,13.71,13.71,0,0,0-.95,1.36l-.84,1.48a10.42,10.42,0,0,0-.77,1.55l-.7,1.6c-.45,1.08-.77,2.21-1.16,3.3s-.59,2.22-.88,3.28l-.39,1.58-.28,1.53-.52,2.82c-.14.88-.22,1.69-.32,2.4l-.25,1.86-.24,1.62,0-1.63.07-1.88c0-.72,0-1.55.14-2.44l.36-2.87.2-1.57c.08-.53.23-1.07.34-1.62l.37-1.67a12.58,12.58,0,0,1,.44-1.7c.39-1.12.7-2.28,1.16-3.39l.74-1.65a11,11,0,0,1,.81-1.6l.91-1.52a14.55,14.55,0,0,1,1-1.39,17,17,0,0,1,2.24-2.39,15.75,15.75,0,0,1,2.41-1.67,10.83,10.83,0,0,1,2.27-1l1-.26.86-.13a7,7,0,0,1,1.21-.05A3.71,3.71,0,0,1,254.24,110.74Z" style="fill:#1d1d1b"/><path d="M263.78,157.08a30.94,30.94,0,0,1-1.62,3.17c-.54.92-1.19,2-2,3.07a31.52,31.52,0,0,1-2.68,3.24,18.62,18.62,0,0,1-3.27,2.67,9.62,9.62,0,0,1-1.76.86,7.23,7.23,0,0,1-1.71.42,3.71,3.71,0,0,1-.78,0,3.58,3.58,0,0,1-.7,0,5.83,5.83,0,0,1-1.11-.24,5.38,5.38,0,0,1-.67-.28l-.23-.1.24.07c.16,0,.39.13.69.19a5.66,5.66,0,0,0,1.09.13,3.38,3.38,0,0,0,.67,0,4,4,0,0,0,.74-.09,6.85,6.85,0,0,0,1.59-.5,12.64,12.64,0,0,0,1.64-.89,18.2,18.2,0,0,0,3.12-2.65,31,31,0,0,0,2.69-3.13c.8-1.05,1.53-2.05,2.11-2.94C263.06,158.31,263.78,157.08,263.78,157.08Z" style="fill:#1d1d1b"/><path d="M145.39,288.16c.87.14,1.75.2,2.62.27s1.75.12,2.63.16c1.76.09,3.51.13,5.27.17h-.08l2.43-.84,2.39-1c1.57-.69,3.16-1.37,4.69-2.15l2.31-1.14,2.29-1.2c1.54-.77,3-1.64,4.54-2.47,3-1.69,5.95-3.48,8.87-5.31l4.34-2.8c1.45-.92,2.87-1.91,4.3-2.87s2.83-2,4.25-2.95,2.81-2,4.19-3c2.79-2,5.52-4.14,8.26-6.23l4-3.23c1.36-1.06,2.66-2.2,4-3.28s2.67-2.19,4-3.33l3.93-3.37-3.77,3.55c-1.25,1.19-2.55,2.33-3.84,3.48s-2.57,2.31-3.91,3.4l-4,3.33-4.05,3.24c-1.34,1.1-2.75,2.1-4.12,3.15s-2.77,2.07-4.18,3.07-2.8,2-4.24,3-2.84,2-4.3,2.91-2.9,1.88-4.37,2.79c-2.94,1.82-5.92,3.58-8.95,5.26-1.52.82-3,1.68-4.58,2.45s-3.1,1.55-4.67,2.27-3.17,1.39-4.77,2.05l-2.44.92-2.48.79h-.08q-2.64-.16-5.27-.41A47.35,47.35,0,0,1,145.39,288.16Z" style="fill:#1d1d1b"/><path d="M183.23,313s-4.83,11,4.65,18.49" style="fill:none;stroke:#1d1d1b;stroke-miterlimit:10"/><path d="M182,313.38s-9.19,4.52,2.06,16.58" style="fill:none;stroke:#1d1d1b;stroke-miterlimit:10"/><path d="M168.26,313.93s-4.75,9.11,5,19.73" style="fill:none;stroke:#1d1d1b;stroke-miterlimit:10"/><path d="M184.06,323.07a1,1,0,0,1,0-.28,2.34,2.34,0,0,1,.37-.73,5.5,5.5,0,0,1,.87-.94l.61-.5.73-.46a18.87,18.87,0,0,1,1.73-.89,19.13,19.13,0,0,1,2-.78c.71-.24,1.45-.48,2.21-.66s1.53-.39,2.31-.54,1.56-.32,2.33-.41l2.27-.31c1.48-.16,2.86-.24,4-.33s2.18,0,2.87-.07h1.09l-1.07.19c-.68.1-1.66.29-2.83.44l-4,.64-2.23.39c-.77.11-1.53.29-2.29.44s-1.53.31-2.28.49-1.48.35-2.18.56a23.5,23.5,0,0,0-3.75,1.32l-.74.37-.64.38a5.23,5.23,0,0,0-.94.77,2.71,2.71,0,0,0-.47.63A1,1,0,0,0,184.06,323.07Z" style="fill:#1d1d1b"/><path d="M185.6,326.68s.34,0,.94,0,1.45,0,2.48,0,2.22.13,3.49.28,2.63.36,4,.62a34.85,34.85,0,0,1,3.9,1,15.79,15.79,0,0,1,1.75.65,11.26,11.26,0,0,1,1.51.71l.65.35.55.39a5.62,5.62,0,0,1,.86.67c.44.42.67.66.67.66l-.79-.51a5.43,5.43,0,0,0-.93-.5,10,10,0,0,0-1.26-.54c-.46-.19-1-.37-1.53-.53s-1.13-.34-1.74-.5-1.24-.31-1.89-.46-1.31-.28-2-.42c-1.32-.28-2.65-.51-3.9-.73l-3.42-.58Z" style="fill:#1d1d1b"/><path d="M164.71,323.07s-.41-.12-1.13-.28-1.76-.34-3-.54c-.62-.1-1.3-.19-2-.26s-1.48-.13-2.26-.21c-1.57-.11-3.24-.23-4.92-.26-.84,0-1.68-.06-2.5,0s-1.64,0-2.43,0l-2.27,0-2,.06-3.06.1-1.17,0,1.14-.22c.73-.1,1.77-.35,3-.47s2.74-.33,4.33-.4,3.29-.12,5-.07c.85,0,1.7.08,2.53.13s1.65.17,2.45.25a42.4,42.4,0,0,1,4.29.8,24,24,0,0,1,2.95.91A10.21,10.21,0,0,1,164.71,323.07Z" style="fill:#1d1d1b"/><path d="M166.35,327.55l-1.13,0c-.36,0-.79.06-1.27.1s-1,.19-1.63.27-1.23.29-1.91.44l-2.11.61c-1.45.47-3,1-4.52,1.55s-3,1.15-4.47,1.71-2.75,1.1-3.87,1.59-2.07.89-2.7,1.22a8.08,8.08,0,0,0-.73.39l-.25.15.22-.2a5.14,5.14,0,0,1,.67-.51,29.53,29.53,0,0,1,2.55-1.56c1.09-.58,2.36-1.26,3.77-1.89s2.93-1.27,4.47-1.84c.77-.29,1.56-.53,2.33-.79s1.55-.44,2.29-.66,1.49-.34,2.19-.47,1.36-.24,2-.29a12.19,12.19,0,0,1,1.7-.08c.51,0,1,0,1.31.08Z" style="fill:#1d1d1b"/><path d="M134.67,306l-.52,0-1.36.11-4.1.28-4.09.26c-.56,0-1,.07-1.35.12l-.52.07a8.56,8.56,0,0,1,1.79-.64,23.11,23.11,0,0,1,4.12-.61,26.18,26.18,0,0,1,4.16.06A15.34,15.34,0,0,1,134.67,306Z" style="fill:#1d1d1b"/><path d="M232.32,345.66s-12.61,13-15,15.1-2.85.87-4.12-.63-9.83-16.83-9.83-16.83" style="fill:none;stroke:#1d1d1b;stroke-miterlimit:10"/><path d="M183.74,312.48s-4.84-3.71-4.61-7.3c0,0-5.05,3.33-7.22,4.65-1.61,1.07-1,2-1,2" style="fill:none;stroke:#1d1d1b;stroke-miterlimit:10"/><path d="M168.83,313.38s4-7.15,7.14-9.62" style="fill:none;stroke:#1d1d1b;stroke-miterlimit:10"/><path d="M228,497.66c11.89-17.34,64.63-131.94,76.53-158.51,1.86-3.62.13-3.94-.91-4.73s-27.18-20-47-44" style="fill:none;stroke:#1d1d1b;stroke-miterlimit:10"/><path d="M298.19,278.59a191,191,0,0,0,3.3,24c.52,2.64-.84,2-3.3,2.64s-16,3.65-22.41,5.65" style="fill:none;stroke:#1d1d1b;stroke-miterlimit:10"/><path d="M235.22,485.09s77.3,2.08,96.92-5.91" style="fill:none;stroke:#1d1d1b;stroke-miterlimit:10"/><path d="M364.11,497.66s8.67-141,65.73-167.9" style="fill:none;stroke:#1d1d1b;stroke-miterlimit:10"/><path d="M56.87,297.79c-21.33,25.85-21.8,85.75-20.4,108.5s5.08,40.4,10,89.62" style="fill:none;stroke:#000;stroke-miterlimit:10"/><polyline points="131.82 278.11 113.21 289.02 117.12 296.99" style="fill:none;stroke:#000;stroke-miterlimit:10;stroke-width:0.8px"/><path d="M19.22,423.76c-3,17.66,6.67,57.32,17.88,73.66" style="fill:#333"/><path d="M19.22,423.76s0,1.21-.09,3.32c0,1.05.1,2.32.12,3.76s.28,3.09.4,4.86l.36,2.77c.13,1,.22,1.94.4,3,.32,2,.66,4.15,1.08,6.35s.91,4.45,1.36,6.75,1,4.61,1.62,6.93,1.14,4.63,1.81,6.88l.95,3.36,1,3.26c.65,2.14,1.37,4.17,2,6.13l1,2.8c.33.91.61,1.8,1,2.62l1,2.38.43,1.11.46,1c.62,1.31,1.07,2.52,1.57,3.44,1,1.86,1.5,3,1.5,3s-.74-.94-2-2.65c-.64-.85-1.29-2-2.07-3.21s-1.54-2.74-2.41-4.35S29,483.8,28.1,481.9s-1.67-3.95-2.4-6.1-1.57-4.35-2.21-6.65-1.31-4.63-1.94-7-1.08-4.73-1.54-7.07-.84-4.66-1.13-6.92-.52-4.44-.69-6.52-.19-4.06-.26-5.87.06-3.49.17-5,.27-2.78.43-3.82C19,424.94,19.22,423.76,19.22,423.76Z"/><path d="M22.59,394.06c-.26,7.42,1.29,25.44,2.32,28.53" style="fill:#333"/><path d="M22.59,394.06s.08.45.18,1.24l.41,3.23c.16,1.33.34,2.89.5,4.55.07.83.18,1.69.24,2.57l.23,2.65.18,2.66c.07.88.1,1.74.15,2.58.09,1.67.16,3.23.21,4.57s.08,2.46.13,3.24c0,.39,0,.7.06.91l0,.33-.13-.3a6.71,6.71,0,0,1-.35-.86,27.29,27.29,0,0,1-.88-3.17c-.3-1.32-.59-2.88-.82-4.55-.11-.84-.25-1.7-.33-2.58l-.25-2.67L22,405.78c-.05-.88,0-1.76-.07-2.6,0-1.69,0-3.27.11-4.62s.22-2.49.34-3.27S22.59,394.06,22.59,394.06Z"/><path d="M164.71,479.18s.4-1.84,1.22-5,2-7.73,3.58-13.14c.8-2.7,1.65-5.63,2.63-8.71l1.49-4.74,1.64-4.92c1.09-3.35,2.37-6.76,3.59-10.26s2.61-7,4-10.5,2.81-7,4.3-10.36l2.22-5c.72-1.67,1.45-3.3,2.23-4.88l2.24-4.69,1.1-2.27,1.14-2.17c1.53-2.85,2.89-5.59,4.29-8l3.88-6.65c1.15-2,2.32-3.61,3.2-5l2.84-4.31-2.68,4.42c-.83,1.41-1.95,3.07-3,5.08l-3.71,6.73c-1.35,2.47-2.66,5.22-4.13,8.09l-1.1,2.19-1.05,2.28L192.34,402c-.76,1.58-1.49,3.22-2.19,4.88l-2.18,5c-1.46,3.39-2.81,6.89-4.23,10.37s-2.72,7-4,10.46-2.53,6.88-3.64,10.22-2.26,6.54-3.26,9.61-1.93,6-2.79,8.65c-1.67,5.38-3,9.87-3.93,13Z"/><path d="M203.38,358s-1.62-5.73,0-8.76" style="fill:#333"/><path d="M203.38,358s-.18-.53-.37-1.35a18.41,18.41,0,0,1-.43-3,14.26,14.26,0,0,1,0-1.65,8.89,8.89,0,0,1,.24-1.42,5.12,5.12,0,0,1,.36-1l.17-.34-.14.36a6.37,6.37,0,0,0-.28,1,10.75,10.75,0,0,0-.18,1.41,14.23,14.23,0,0,0,0,1.63A29.23,29.23,0,0,0,203.38,358Z"/><path d="M123,380.46l-.43,3.86c-.28,2.46-.6,6-1,10.19-.18,2.11-.4,4.39-.57,6.82s-.36,5-.54,7.61-.33,5.37-.48,8.15-.22,5.6-.33,8.42-.16,5.64-.19,8.42-.05,5.51,0,8.16.06,5.2.19,7.63.2,4.71.35,6.83l.46,5.76c.11,1.72.36,3.2.49,4.43l.45,3.86-.64-3.83c-.18-1.22-.49-2.7-.67-4.41l-.66-5.76c-.2-2.11-.33-4.41-.52-6.84s-.23-5-.33-7.64-.05-5.39-.09-8.18.08-5.62.13-8.45.23-5.66.4-8.44.32-5.52.55-8.16.43-5.2.69-7.62.51-4.7.74-6.81C122,386,123,380.46,123,380.46Z"/><path d="M136.28,458.49l-.17,1.11c-.13.7-.27,1.72-.5,2.92l-.77,4.11-.93,4.69L133,476c-.28,1.5-.58,2.89-.76,4.09l-.26,1.64L131.8,483l-.06,1.12s-.06-.4-.13-1.12a26.6,26.6,0,0,1,0-3c.1-1.23.23-2.66.46-4.18s.51-3.13.83-4.73.68-3.2,1-4.68.76-2.86,1.08-4,.65-2.15.86-2.84S136.28,458.49,136.28,458.49Z"/><path d="M78.56,497.43s-5.82-103.12,6-172.15a112.1,112.1,0,0,1,2.56-12.79s27.77-10.52,48.39-29.54" style="fill:none;stroke:#000;stroke-miterlimit:10"/><path d="M193.67,337.28a20.06,20.06,0,0,1-2.26,9.83c-2.7,5.56-4.17,19.23-4.17,19.23s-1.7,13.07-3.69,17-11.45,36.8-14.35,52.06-3.7,11-9.38,52.56c-.5,6.28-1.1,9.74-1.1,9.74" style="fill:none;stroke:#1d1d1b;stroke-miterlimit:10"/><path d="M136.28,497.66s2.29-11.74,3.59-24.7,8.68-47.48,9.38-50.17,6.78-21.44,8.68-25,3.39-8.18,6.18-20.25,3.89-15.56,4-17.75a236.51,236.51,0,0,1,4.57-25.34" style="fill:none;stroke:#1d1d1b;stroke-miterlimit:10"/><path d="M143.43,353.81s-.09-.18.44,1.24,1.33,1.49,2.3.79,7.88-6.64,7.88-6.64" style="fill:none;stroke:#1d1d1b;stroke-miterlimit:10"/><path d="M141.76,286.77s-.58,7.71-.57,16.43" style="fill:#fff;stroke:#1d1e1c;stroke-miterlimit:10"/><ellipse cx="174.47" cy="374.52" rx="5.96" ry="5.95" style="fill:#cccbcb;stroke:#1d1e1c;stroke-miterlimit:10;stroke-width:0.5px"/><ellipse cx="173.68" cy="374.22" rx="5.23" ry="5.74" style="fill:#fff;stroke:#1d1e1c;stroke-miterlimit:10;stroke-width:0.6000000000000001px"/><ellipse cx="175.6" cy="372.87" rx="0.54" ry="0.82" style="fill:none;stroke:#1d1e1c;stroke-miterlimit:10;stroke-width:0.4px"/><ellipse cx="173.14" cy="372.71" rx="0.54" ry="0.82" style="fill:none;stroke:#1d1e1c;stroke-miterlimit:10;stroke-width:0.4px"/><ellipse cx="172.99" cy="376.03" rx="0.54" ry="0.82" style="fill:none;stroke:#1d1e1c;stroke-miterlimit:10;stroke-width:0.4px"/><ellipse cx="175.4" cy="376.15" rx="0.54" ry="0.82" style="fill:none;stroke:#1d1e1c;stroke-miterlimit:10;stroke-width:0.4px"/><ellipse cx="151.35" cy="469.78" rx="5.96" ry="5.95" style="fill:#cccbcb;stroke:#1d1e1c;stroke-miterlimit:10;stroke-width:0.5px"/><ellipse cx="150.56" cy="469.48" rx="5.23" ry="5.74" style="fill:#fff;stroke:#1d1e1c;stroke-miterlimit:10;stroke-width:0.6000000000000001px"/><ellipse cx="152.49" cy="468.13" rx="0.54" ry="0.82" style="fill:none;stroke:#1d1e1c;stroke-miterlimit:10;stroke-width:0.4px"/><ellipse cx="150.02" cy="467.96" rx="0.54" ry="0.82" style="fill:none;stroke:#1d1e1c;stroke-miterlimit:10;stroke-width:0.4px"/><ellipse cx="149.87" cy="471.29" rx="0.54" ry="0.82" style="fill:none;stroke:#1d1e1c;stroke-miterlimit:10;stroke-width:0.4px"/><ellipse cx="152.28" cy="471.4" rx="0.54" ry="0.82" style="fill:none;stroke:#1d1e1c;stroke-miterlimit:10;stroke-width:0.4px"/><path d="M80.68,77.19c-1.88,9.59-1.6,19.71,2.49,24.92-5.94-3.23-8.12-9.87-9.42-12.91-1.9,4.74,1.82,17.21,5.34,21.52-6.54-4-12.11-11.53-8.73-32.81" style="stroke:#000;stroke-miterlimit:10"/><path d="M260.56,64a93.61,93.61,0,0,0-33.38-45.42c-2.2-1.71,4.92,8.52,4.92,8.52s-3.48,2-2,2.36S236,31,234.24,31.23s-4.91,1-4.91,1l2,1.59s-3.1.6-2.32,1.19,5.27,1.43,5.27,1.43-3.89.51-4.51,1.87c2.08.46,7.68-.39,7.68-.39-6.9,6.64-16.48,5.81-16.48,5.81,4.57,2.43,18.9-.24,18.9-.24l.25,1.3a46.2,46.2,0,0,1-16.16,1.8c5.27,3.16,16.43-.38,16.43-.38l.32,1.66a28.48,28.48,0,0,1-15.5,1.57l-1-.2c-1.95-.39-18.47-4.68-23.71-12.73s1.9-.27,2.62.18,1.36,0-.09-2.62,1.54-.18,3.08.45-1.63-4.45-7.24-7.29,5.34-1.12,10,3.67c1.94,1.72,3.06-4.31,1.94-5a26,26,0,0,0-11.26-3.64c-5.25-.27-1.09.72-.18.9s-.36.81-11.22.45-13.94-5.91-19.82-6.09-5.05-2.26,1.91-2.08,6.69,2.9,19.45,3.17,20.18.09,5.16-2.53c-16.11-.81-15.29-3.53-5-2.9,0,0,10.5,2,14.39,3.62s1.18-1.9-2.44-2.53-.56-1.72,9,0,3.94-1.63-1.31-1.9S196,9.92,205.85,10c9.23,2.53,15.18,4.53,3.53-1.18-12.38-6.06-43.64-14.15-86-4-4.38,1,1.23,1.5,13.49,2S135.12,9,127.63,8.47s-11,1,3.54,1.5c0,0,4.9,1,1.09,1.23s-.27,2.59,8.31,3-1,2.59-3.41,1.63-4.9-.27-3.54.68-4.9-.27-2.45,1.36H119.86c-2.86,0-3.41,1.36.68,1.36h6.27c2.59,0-.68,1.09.27,1.23a51.17,51.17,0,0,0,6.68.27c4,0,4.22,1.23,1.23,1.09s-2,2.06-4.77,2.05-4.7,2.12-7.7,2c-2.53-.12-8.28,3.67-9,5.91L110,33.54a23,23,0,0,0-2-3.93c-.9-1.23-1.45-2-5.68-3.3s-4.68-.7-6.56-.79S92.18,19,89.71,18.29s14.16-8,18.49-7.29,1-2.89-.87-2.65S91.27,12.57,88.17,16s-5.63,2.81-6.27,2.62-2,.3-5.34,3.79-15.08,8.35-16,10.3,24.59-9-10.12,9.15c0-.59-.8-.89.66-1.64,1.46-1.34-.34-.73-1.46-.3s-4.39.6-.86-.95,1-2.32-.75-1.89c-.8-2.17.81-3.53,1.07-5.16s-.77-2.28-1.41-1.2A47.88,47.88,0,0,0,45,38.09c1.28.46.15,4.59,2.7,3.21,1.68-.91,0,2.58-1.46,3.69s1.89.26,3.44-.43c1.23-.43.72-.76.73-1.36,2.33-1.11,4.23-1.56,5.36-2.28,2.69-1.7,4.58.71,2.3,2.48-2,1.52-4.1,5.23-7.52,8.06-1,.8,1.3,3.57,1.89,2.16s5-7.07,6.37-7.93,1.95.91.56,2.08-4.63,4.24-3.5,4c2.23-.54,5-3,5.75-3.77s-.63,5-19,15c-3,1.61,7.73.74,20.43-11.42,5-4.79,1.33,6.47-9.54,21.66-3.82,5.33-2.14,7.73,3.38,0,1.63-2.27,2.53,2.3,3.46,4.28a25,25,0,0,0-2.28,3.8c-.81,2,.94,4,2.15,1.08a69.81,69.81,0,0,1,4.31-8.08c.94-1.62-.27-1.88-1.88,0,0,0-.57.75-1.31,1.78-.49-2.88-1.82-7.7-.54-9.1,7.86-8.59,3.58-2,3.58-2a4.89,4.89,0,0,0,2.09-1.1c.89-.84,2.65-1.44,1.36.24s1.4,1.69,4.18-.17,6.2-3.69,3.22-.14,3-.68,4.24-1.74,5.14,1.05,7-.08C84.33,63.6,74.5,70.71,72.66,72.45c-2.22,2.1.12,1.71,1.89.57S77,72.37,74,77.69s-.82,3.57-.06,3.16c.24-.13,1.85-1.56.44,1.39-2.23,4.67-3.77,8.06-3.57,8.82.76,3,3.57-8.82,4.06-3.61a7.77,7.77,0,0,0,.64,2.39c4.28,9.71,1.78,2.18,1.69-6C77.09,76.2,84.53,71,85.9,70.17s.52-3.53-6.8,3S85.16,62.35,96.8,59c3.44-.87.47-2.08-4.21-.79s-.16-2.11,4.26-2.53,6.27-1.29,8.67-1.35,1.21-3-5.94-.84-3.13-.15-.33-1.53,12.48-1.32,13.54-1.16,1.45-1.63-.58-1.76a30.32,30.32,0,0,0-6.59.24c-2.49.36.08-10.38,4.56-10.46A9.79,9.79,0,0,0,117.34,35l-.16-.65a1.12,1.12,0,0,0,.37-.26c4.63-3.54,9.26-7.63,10.22-6.95s2.45,1.91,4.09.54,3.81-.41,3.81.68,1.63,1.5,2.45,1.5-1,3.13,1.91,2.32,1.63,1.63.68,1.63-1.36.26-1.63,1.76-3,.82-3,2.32.27,6-.27,6.67-5.31,4.89-6,8.71-10,10.27-16.29,13.45c-5.46,2.76-9.57,8.69-7.59,8.18,0,0,20-14.43,29.65-16.68s-1.79-1.79-2.6-1.62,6.82-7.51,13.16-7.83-1.95-2.44-6.5-2.44,3.09-3.9,14.94-3.09-5.85-2.92-12.83-1.46c-2.41.32,3.11-3.55,14-3.19s-5.61-1.54-7.24-1.45,3.26-1.8,7.6-2.34-3.84-1.27-6.76-.45,15.59-8.92,33.12-.59c5,1.36,12.19,2.63,17.71,8,10.08,9.74,24.35,11.4,31.51,13.89.58.24,1.26.48,2,.73-25.46,10.88-41.95-3.73-40-1.91,9.32,11.77,30.17,7.38,33.85,6.24-3.9,2.76-12.61,4.46-17.07,4.91,1,.23,2.29,1,9.65-.09-11.45,5-18.78-2.6-22-4.39a13.29,13.29,0,0,0,2.53,6.14c1.89,2.37,1.46,3.09,1.46,4.56s-.86,3.86,1.9,6.79,2,4.88,2.57,7.82S211,100.1,218.32,103c-12.27,5.31-32.07-.07-37,0,1.65,1.61,10.77,9.59,14.76,11.08a20.15,20.15,0,0,0,10.06.54v-1.79c-5.24,1.72-8.54.18-8.54.18s-2-1.35.06-3.28c-5.26,0-10.3-3.89-10.3-3.89s26,4.85,33.84-2.7c16.34-15.69,32-12.42,32-12.42s-3.5,3.63-1,2.63,11.84,2.37,8.15,3.43-7.81,5.51-7.81,5.51,9.78-5,11.42.19,5.14,5.45,5.14,5.45S270.17,92.55,260.56,64ZM67.77,55.58A5.67,5.67,0,0,1,70,54.18c.78-.4,1.28-3.13-1.1-1.9s-4.81,1.32-2.27-.18,3.13-5.17,1.47-4.06-4.19,2.41-1.56-.13-.8-2.45-3-.24-2.56-1.88,3-5.56A148.6,148.6,0,0,0,83.32,28.71c1.66-1.84,2.75.33,2.38,1.13s-.81,1.46-2.26,3.93-.18,2.23.61,1.47.2-.3,2.67-4,2.57-.52,1.21,1.34S86.59,36,88.58,34s2.33-2.11.53,1.26.6,2,2.85-1.29,3.7-.46,2,2.3-1.92,7.78,2.14,1.09,3.42-2.62,2.27.18S90.15,48,84.88,51.57c-3.26,2.2-14,5.76-14.64,5.8S66.75,56.62,67.77,55.58Zm34.67-15.25C100.7,44.92,92.93,52.22,89.5,55S73.58,61.55,72,62s-5.35-.13-1-2.37S82.54,56,86.77,52.95C95.65,46.61,98.09,41.35,99,40S104.19,35.74,102.44,40.33ZM245.71,84.82c.86.22,1.47,1.54-9,3.58-7.7,1.5-13.17,7.36-14.6,9.07s-6-2-6.2-2.84,4.26-4.1,5.75-4.91c-1.9-.68-4.38.46-5.8,1s-1.74-2.28-1.74-2.28c2.63-2.21,7-4.91,8.38-5.3s11.78-1.2,24.6-3.05c-5.21,4-5,2.93-7.37,4.45S244.85,84.59,245.71,84.82ZM244.38,66c3.45-.24,3.7,1.27.63,1.52s-13.51,3.16-5.52,2.12,6,1,5.22,1.15-7.25,1.24-10.3,2-1.16,2,1.47,1.53,2,.82-.3,1.27-3.66,1.24-2.69,1.39.34.54,3-.15,3.74,0,.88.52c-.75.15-1.41,1.58.23,1.6s3,1.14,2,1.29-10.27.27-15,.94-4.94,1.68-7,3c-2.23,1.4-2.94,2.1-3.06-1.69s-1.93-5.09-3.83-5.63-.49-1.33.32-1.54.52-1.35,0-1.25-4.16-.92-1.9-2-.7-1.77-1.67-1.93-.88-1.73.62-1.62a89.44,89.44,0,0,0,28.3-3.79c13.22-4.23,13.38-2.18,13.38-2.18S240.93,66.26,244.38,66Z" style="fill:#e5e5e5"/><path d="M130,213.84s.1-.65.26-1.57l.6-3.37c.23-1.22.45-2.44.65-3.37s.37-1.55.37-1.55a9,9,0,0,1,.2,1.59,15.61,15.61,0,0,1-.24,3.5,14.42,14.42,0,0,1-1,3.36A7.36,7.36,0,0,1,130,213.84Z"/><path d="M111.78,210.86s.13-.15.37-.39a6,6,0,0,1,1.08-.86,8.54,8.54,0,0,1,4-1.34,9,9,0,0,1,4.12.62,8.54,8.54,0,0,1,1.69.87s-.19.05-.52.11a13.29,13.29,0,0,1-1.34.15c-1.09.1-2.45.11-3.78.24s-2.66.3-3.73.42l-1.32.16C112,210.86,111.78,210.86,111.78,210.86Z"/><path d="M112.79,216.91a29.75,29.75,0,0,1,2,13" style="fill:none;stroke:#000;stroke-miterlimit:10"/><path d="M120,228.21c-.86-3.94-1.19-6.43-3.7-10.17a1.86,1.86,0,0,0-1.93-1.16c-3.42.09-11.78-.05-11.78-.05s-13.07-3-10.77-11.46c9.85-35.89,8.91-37.77,8.3-48,0,0,0,.44.61,10.28-1.32,9.76-8.15,35.06-8.15,35.06" style="fill:none;stroke:#000;stroke-miterlimit:10"/><path d="M111.56,194.81s4.93-2.61,6.94-2.61" style="fill:none;stroke:#000;stroke-miterlimit:10"/><path d="M114.93,195.72s4.22-2,6.2-2.21" style="fill:none;stroke:#000;stroke-miterlimit:10"/><path d="M118.5,196.4s2.92-1.7,3.82-1.59" style="fill:none;stroke:#000;stroke-miterlimit:10"/><path d="M121.13,197.87a10,10,0,0,1,3.68-1.47" style="fill:none;stroke:#000;stroke-miterlimit:10"/><path d="M109.9,237.62c.77-2.95,4.28-2.19,5.88-.82.74.64,3.21-.19,3.92-1s5.41-3.38,12.66-1.13,17.77,2.66,19.41,2.76,3.1.82,1.6,1.94-18.53,11-24.79,13.69c-12.25,5.36-13.65-4.92-12.81-9C113.62,243.45,108.91,241.4,109.9,237.62Z" style="fill:#d29f9b;stroke:#000;stroke-miterlimit:10"/><path d="M115.78,244.06s2.33-2.86,5.17-2.14,7.2-2.45,33-3.37" style="fill:none;stroke:#000;stroke-miterlimit:10"/><path d="M171,497.66a144.7,144.7,0,0,1,3.86-18.58c1.61-6.12,3.52-12.16,5.5-18.17s4.22-11.93,6.51-17.82l3.57-8.79c1.27-2.9,2.51-5.81,3.81-8.69-1.09,3-2.24,5.91-3.35,8.87l-3.31,8.88c-2.14,5.94-4.33,11.87-6.29,17.87s-3.95,12-5.71,18.05q-1.33,4.54-2.5,9.13C172.28,491.48,171.57,494.56,171,497.66Z"/><rect id="SVGID" x="169.15" y="413.42" width="27.68" height="84.25" style="fill:none"/></g></g></svg>