<svg xmlns="http://www.w3.org/2000/svg" viewBox="0 0 374.89 498.53"><title>profil</title><g id="Calque_2" data-name="Calque 2"><g id="Calque_3" data-name="Calque 3"><path d="M.5,498H374.26s-11.1-49-12.76-67.19S341,307.93,318,298.16c-27-10.08-96.11-26-96.11-26L107.25,245.79s-3.73-.34-7.23,5.82S77.83,277.72,76.69,279c-2.14.65-40.63,15.19-76.19,29Z" style="fill:#333;stroke:#000;stroke-miterlimit:10"/><path d="M116.1,228.92c-5.8,1.23-7.94,15-11.21,25-.84,11.37,13.37,36.92,13.37,36.92s.61-.66,2.06,1.86c3.05,5.29,31.68,72.73,38.77,102.84,12.15,27.31,15.61,43.37,28.41,70.8,2.29,4,10.81,31.71,10.81,31.71h66.14c1.5-74.19,3.44-149.26-29.87-211.63C199.37,220.44,116.1,228.92,116.1,228.92Z" style="fill:#fff;stroke:#1d1e1c;stroke-miterlimit:10"/><path d="M302.94,88.62s5,1.66,14.5-2.95c6.85-3.32,10-9,11.21-15.64,11.82-5.05,7.92-14.42-.65-19,5.08-8.44.82-16.06-2.12-22.88-1.83,3.56-1.28,9.74-3.51,7.1-2.73-3.2-5.84-2.73-9.59-5.35-1.85-1.29-1.34-6.2-3.51-7.53-4.39-2.7-11-3.28-15.07-7.92-6.37-7.28-11-1.27-14.35-2.22-37.62-10.54-84.09-22-128.21,4.12-71.55,44.88-40.54,168-33.58,195.48,7.76,30.68,118.18-38.57,118.18-38.57Z"/><path d="M302.94,88.62s3.6,23.72-1.37,44.27a47,47,0,0,0-.75,9.62s1.63,17-7.21,22.88-10.2,13.15-9.23,22.65a39.59,39.59,0,0,1-1.64,16.65c.57,1.74,1.81,5.7-3.22,9.27-1.47,5.58-11.16,22.94-11.16,22.94s-1.07,8.59-15.9,24.26c-3.07,3.15-6.68,12.67-8.68,16.05s-5.73,12.22-24.8,12.17c-2.68,7.46-18.63,14-23.22,16.16-67.53-42.15-84.63-54-79.8-75.46,2.83-23.45,3.63-31,3-44.29-9.48-9.77-23.69-50.92-7.58-70.16,7.91-7.61,14.43-4.1,18.11-.68,1.31-2.83,2.76-.46,2.76-.46s10.55,7.68,15.37,33.38c.69,3.33,7.34,4.47,12.74,6.43,1.41-2.64,4.36-10.14,8.67-18.91.9-1.83-3,0-2-1.94,1.19-2.23,7.31-8.19,8.65-10.43s2-3,3.52-5.17c1.08-1.54,2.54-4.07,4.78-4.34,2.69-.32,11.19-8.19,13-10s-4.38-1.32-2.29-2.75c2.26-1.55,4.79-3.3.31-5,2.65-1,13.54-1.19,14.82-2.63,1.71-1.93.07-3.8.14-6.15.08-2.57-2.16-4.73-2.86-7.16-.86-2.95-.13-6-.23-7.68-.15-2.45,10.54-9.67,6.94-12.06-6.43-4.29-5.78-6.45,16.12-1.93,14.5,3,28.37,13.79,42.26,20.32,1.25.59-.69-5.76.55-5.16C281.92,77.69,294.58,84.32,302.94,88.62Z" style="fill:#efc7be;stroke:#000;stroke-miterlimit:10"/><path d="M238.74,162.28c3.68-.5,7.9-6.23,5.44-11.15-1.73-.61-4.16-1.08-5.56-.65C237.85,152.68,238.06,162,238.74,162.28Z" style="fill:#3d79bc"/><path d="M283.48,174s5.92-3.42,5.55-8.58c-1.53-1.25-6.6,0-6.6,0Z" style="fill:#3d79bc"/><ellipse cx="239.33" cy="155.35" rx="3.95" ry="3.48" transform="translate(71.18 385.85) rotate(-86.88)" style="fill:#1d1d1b"/><path d="M282.43,165.44l4.63-.66a7,7,0,0,1-3.84,7.51C282.93,169.21,282.43,165.44,282.43,165.44Z" style="fill:#1d1d1b"/><path d="M221.3,151.52s11.56,12.13,17.44,10.76a27.69,27.69,0,0,1-.12-11.8S223.77,149.68,221.3,151.52Z" style="fill:#fff"/><path d="M283.48,174s-4.75.78-7.53-1.36a10.87,10.87,0,0,1-1.21-5.67,15.28,15.28,0,0,1,9.14-1.85C283.21,167,283.48,174,283.48,174Z" style="fill:#fff"/><ellipse cx="286.7" cy="167.62" rx="0.53" ry="1.82" style="fill:#fff"/><ellipse cx="285.3" cy="170.54" rx="0.25" ry="0.87" style="fill:#fff"/><ellipse cx="242.5" cy="154.8" rx="0.53" ry="1.82" style="fill:#fff"/><ellipse cx="241.7" cy="157.83" rx="0.27" ry="0.91" style="fill:#fff"/><ellipse cx="239.8" cy="159.23" rx="0.22" ry="0.76" style="fill:#fff"/><path d="M237.83,356.2s13.71-27.26,18.59-54.36c-17.65-4.57-49.79,12.45-49.79,12.45s-7.09-7.72-15-.95c-5.83-6-29.15-18.28-29.15-18.28s-19.85,14.65-14.81,48.53c.06,6.32-.08,7.48.68,7.89s20.89-6.44,26.85-9.52,10.89-9.66,11.78-10.14c1.16.21,8,.41,9.66,1.23a12.28,12.28,0,0,0,5,1c.57,1.37,15,15,23.17,17.19Z" style="fill:#3d3d3d;stroke:#1d1d1b;stroke-miterlimit:10"/><path d="M247.81,153.43a3.36,3.36,0,0,0-1.67-.9,7.8,7.8,0,0,0-.93-.24,8.86,8.86,0,0,0-.95-.17c-.63-.1-1.27-.19-1.92-.23s-1.28-.11-1.93-.14c-2.58-.12-5.17-.18-7.78-.15l-2,0-2,0h-2q-1,0-2,0c-2.62,0-5.25,0-7.9-.19a59.72,59.72,0,0,1,7.82-1.36c1.31-.18,2.63-.26,4-.35s2.64-.12,4-.12a47.37,47.37,0,0,1,8,.6,22.23,22.23,0,0,1,3.91,1,9.61,9.61,0,0,1,.94.39,5.78,5.78,0,0,1,.91.46A3.16,3.16,0,0,1,247.81,153.43Z" style="fill:#1d1d1b"/><path d="M274.74,167c.67-.36,1.37-.66,2.06-1s1.43-.54,2.16-.76a22.36,22.36,0,0,1,4.52-.87,17.6,17.6,0,0,1,4.61.2,10.38,10.38,0,0,1,4.25,1.71,16.14,16.14,0,0,0-4.36-.94,26.14,26.14,0,0,0-4.43,0,39.21,39.21,0,0,0-4.41.63l-2.2.47C276.21,166.64,275.49,166.84,274.74,167Z"/><path d="M249.08,150.53a10.08,10.08,0,0,0-3.5-2.68,19.4,19.4,0,0,0-2-.9l-1-.39-1.06-.31a40.69,40.69,0,0,0-8.71-1.5,42.6,42.6,0,0,0-8.85.28c-.74.06-1.46.24-2.19.36l-1.09.2-1.08.29c-.71.2-1.46.31-2.15.58s-1.41.48-2.13.71a32.08,32.08,0,0,1,4.15-1.76l1.07-.36,1.1-.27c.73-.17,1.46-.4,2.21-.5a34.78,34.78,0,0,1,9-.52,33.59,33.59,0,0,1,8.88,1.77l1.07.39,1,.47a18.36,18.36,0,0,1,2,1.05A9.48,9.48,0,0,1,249.08,150.53Z" style="fill:#1d1d1b"/><path d="M293.09,164.08a6.1,6.1,0,0,0-3.42-3.16,13.36,13.36,0,0,0-4.66-.82,28.1,28.1,0,0,0-4.82.38,26.37,26.37,0,0,0-4.75,1.18,14.7,14.7,0,0,1,4.59-1.95,19.52,19.52,0,0,1,5-.61,11.62,11.62,0,0,1,5,1.11,9.16,9.16,0,0,1,1.1.69,11,11,0,0,1,.93.9c.25.35.46.73.68,1.08S293,163.68,293.09,164.08Z" style="fill:#1d1d1b"/><path d="M262.1,143.3a55.68,55.68,0,0,0-11-6.64c-2-.86-3.88-1.75-5.9-2.46q-1.48-.59-3-1.09c-1-.36-2-.69-3-1a107,107,0,0,0-12.43-3,52.34,52.34,0,0,0-12.83-.93,18.52,18.52,0,0,1,3.18-.93,25.26,25.26,0,0,1,3.29-.47c1.11-.13,2.21-.08,3.33-.13s2.21.09,3.32.13a59.4,59.4,0,0,1,13,2.5,56.9,56.9,0,0,1,12.16,5.33A32.23,32.23,0,0,1,262.1,143.3Z" style="fill:#1d1d1b"/><path d="M280.12,155.45a22.52,22.52,0,0,1,4.61-3,31.66,31.66,0,0,1,5.1-2,27.32,27.32,0,0,1,5.42-1,16.3,16.3,0,0,1,5.5.5c-1.82.32-3.54.66-5.26,1s-3.4.9-5.09,1.38l-5.08,1.55C283.61,154.45,281.9,155,280.12,155.45Z" style="fill:#1d1d1b"/><path d="M108.25,141.43a47.94,47.94,0,0,1-.22-7.69,36.55,36.55,0,0,1,1.13-7.63,17,17,0,0,1,3.54-6.89,10.25,10.25,0,0,1,7-3.36,8.42,8.42,0,0,1,3.94.65,9.31,9.31,0,0,1,3.19,2.39,20.17,20.17,0,0,1,3.76,6.85,58.19,58.19,0,0,1,2.7,15.22c0,.64.06,1.29.07,1.94a15,15,0,0,1-.11,2c-.15,1.29-.36,2.57-.62,3.84a28.76,28.76,0,0,1-1,3.78c-.25.67-.54,1.17-.71,1.76a9.21,9.21,0,0,0-.38,1.79,6.68,6.68,0,0,0,.48,3.52,5.92,5.92,0,0,0,1,1.47,8.7,8.7,0,0,1,1.17,1.65,9.74,9.74,0,0,1,1.08,3.84c.06.66.06,1.31.06,2v1a8.83,8.83,0,0,0,.06.91,54,54,0,0,1,.45,7.71,15.37,15.37,0,0,1-1.81,7.53,6.09,6.09,0,0,1-3,2.51,8,8,0,0,1-3.87.32,21.66,21.66,0,0,1-7.21-2.64,22.57,22.57,0,0,0,7.24,2.38,7.64,7.64,0,0,0,3.7-.41,5.66,5.66,0,0,0,2.72-2.41,14.93,14.93,0,0,0,1.59-7.28,53.4,53.4,0,0,0-.59-7.61,9.52,9.52,0,0,1-.08-1v-1c0-.64,0-1.26-.09-1.88a9,9,0,0,0-1-3.5,7.83,7.83,0,0,0-1.06-1.47,6.83,6.83,0,0,1-1.15-1.69,7.57,7.57,0,0,1-.58-4,10.12,10.12,0,0,1,.41-2c.18-.65.52-1.27.71-1.8a28,28,0,0,0,.94-3.65c.25-1.24.45-2.5.59-3.75a21.59,21.59,0,0,0,0-3.76,57.29,57.29,0,0,0-2.56-15,19.32,19.32,0,0,0-3.54-6.57,8.63,8.63,0,0,0-2.89-2.21,7.62,7.62,0,0,0-3.55-.65,9.55,9.55,0,0,0-6.57,3,16.53,16.53,0,0,0-3.53,6.6A44.68,44.68,0,0,0,108.25,141.43Z" style="fill:#1d1d1b"/><path d="M120.64,111.1c3.21-.26,6.37,1.34,8.68,3.55a22.85,22.85,0,0,1,5.23,8.06c.33.73.52,1.52.79,2.27a23.19,23.19,0,0,1,.69,2.3l.52,2.34.26,1.17c.08.39.11.79.16,1.18.17,1.58.46,3.15.54,4.74s.14,3.17.16,4.76c-.25-1.57-.43-3.14-.65-4.7s-.55-3.11-.81-4.66c-.12-.78-.32-1.54-.52-2.3l-.58-2.28c-.16-.77-.48-1.49-.71-2.24s-.46-1.5-.79-2.2a24.92,24.92,0,0,0-4.84-7.89,13.59,13.59,0,0,0-3.67-2.81A10.21,10.21,0,0,0,120.64,111.1Z" style="fill:#1d1d1b"/><path d="M111.11,157.45c1,1.62,2,3.2,3.12,4.73a36.67,36.67,0,0,0,3.59,4.33,15.84,15.84,0,0,0,4.4,3.38,6.73,6.73,0,0,0,5.4.37,6,6,0,0,1-2.77.67,7.64,7.64,0,0,1-2.82-.63,15.27,15.27,0,0,1-4.64-3.38,31.91,31.91,0,0,1-3.54-4.49A34.71,34.71,0,0,1,111.11,157.45Z" style="fill:#1d1d1b"/><path d="M229.5,288.52a47.34,47.34,0,0,1-5.24.71q-2.63.25-5.27.41h-.08a71.15,71.15,0,0,1-9.69-3.76c-3.16-1.41-6.22-3.05-9.25-4.71a206.19,206.19,0,0,1-17.62-11c-5.68-3.94-11.24-8.07-16.59-12.45s-10.52-9-15.5-13.76c5.22,4.52,10.52,8.95,15.94,13.21s11,8.33,16.7,12.2,11.51,7.6,17.51,11c1.51.83,3,1.7,4.54,2.47l2.29,1.2,2.31,1.14a70.58,70.58,0,0,0,9.52,3.94H219c1.76,0,3.52-.09,5.27-.17.88,0,1.76-.1,2.63-.16S228.63,288.66,229.5,288.52Z" style="fill:#1d1d1b"/><path d="M191.66,313.34s4.83,11-4.65,18.49" style="fill:none;stroke:#1d1d1b;stroke-miterlimit:10"/><path d="M192.89,313.74s9.19,4.52-2.06,16.58" style="fill:none;stroke:#1d1d1b;stroke-miterlimit:10"/><path d="M206.63,314.29s4.75,9.11-5,19.73" style="fill:none;stroke:#1d1d1b;stroke-miterlimit:10"/><path d="M190.82,323.43a4.37,4.37,0,0,0-2.2-2.07,16.46,16.46,0,0,0-2.86-1.19,49.65,49.65,0,0,0-6-1.53c-1-.22-2-.41-3.08-.57s-2.06-.35-3.1-.52c-2.07-.36-4.15-.61-6.23-1,1.06,0,2.11,0,3.17,0s2.11.13,3.16.21,2.1.21,3.15.35,2.09.32,3.13.53a31.82,31.82,0,0,1,6.12,1.79,16.45,16.45,0,0,1,2.84,1.49A8.61,8.61,0,0,1,190.1,322,2.57,2.57,0,0,1,190.82,323.43Z" style="fill:#1d1d1b"/><path d="M189.29,327c-3.59.63-7.15,1.16-10.68,1.88-1.77.34-3.5.77-5.22,1.27a15.63,15.63,0,0,0-4.88,2.2,11.45,11.45,0,0,1,4.62-2.94,31.93,31.93,0,0,1,5.28-1.52A46.52,46.52,0,0,1,189.29,327Z" style="fill:#1d1d1b"/><path d="M210.17,323.43a25.86,25.86,0,0,1,6.52-1.9,47.06,47.06,0,0,1,6.77-.66,58.92,58.92,0,0,1,6.79.2l3.37.37c1.12.2,2.23.36,3.34.59l-6.75-.19c-2.24,0-4.48-.06-6.72,0s-4.47.19-6.69.42c-1.11.12-2.22.26-3.32.45A27.14,27.14,0,0,0,210.17,323.43Z" style="fill:#1d1d1b"/><path d="M208.53,327.91a14.7,14.7,0,0,1,6.57.15,43.93,43.93,0,0,1,6.34,1.84,58.69,58.69,0,0,1,6.05,2.59,28.6,28.6,0,0,1,5.63,3.4,22.67,22.67,0,0,0-2.94-1.43q-1.49-.67-3-1.28c-2-.81-4-1.63-6.08-2.36s-4.09-1.45-6.18-2a27.81,27.81,0,0,0-3.16-.71A12.22,12.22,0,0,0,208.53,327.91Z" style="fill:#1d1d1b"/><path d="M240.22,306.4a22,22,0,0,1,6-.36,25.79,25.79,0,0,1,3,.36,11.3,11.3,0,0,1,2.91.88c-1-.14-2-.19-3-.26l-3-.19C244.21,306.7,242.23,306.58,240.22,306.4Z" style="fill:#1d1d1b"/><path d="M142.56,346s12.61,13,15,15.1,2.85.87,4.12-.63,9.83-16.83,9.83-16.83" style="fill:none;stroke:#1d1d1b;stroke-miterlimit:10"/><path d="M191.15,312.84s4.84-3.71,4.61-7.3c0,0,5.05,3.33,7.22,4.65,1.61,1.07,1,2,1,2" style="fill:none;stroke:#1d1d1b;stroke-miterlimit:10"/><path d="M206.06,313.74s-4-7.15-7.14-9.62" style="fill:none;stroke:#1d1d1b;stroke-miterlimit:10"/><path d="M146.88,498C135,480.68,82.24,366.08,70.35,339.51c-1.86-3.62-.13-3.94.91-4.73s27.18-20,47-44" style="fill:none;stroke:#1d1d1b;stroke-miterlimit:10"/><path d="M76.69,279a191,191,0,0,1-3.3,24c-.52,2.64.84,2,3.3,2.64s16,3.65,22.41,5.65" style="fill:none;stroke:#1d1d1b;stroke-miterlimit:10"/><path d="M139.66,485.45s-77.3,2.08-96.92-5.91" style="fill:none;stroke:#1d1d1b;stroke-miterlimit:10"/><path d="M318,298.16c21.33,25.85,21.8,85.75,20.4,108.5s-5.08,40.4-10,89.62" style="fill:none;stroke:#000;stroke-miterlimit:10"/><polyline points="243.06 278.47 261.67 289.39 257.76 297.36" style="fill:none;stroke:#000;stroke-miterlimit:10;stroke-width:0.8px"/><path d="M355.67,424.13c3,17.66-6.67,57.32-17.88,73.66" style="fill:#333"/><path d="M355.67,424.13a44.42,44.42,0,0,1,1.23,9.61l.05,2.43-.07,2.43c0,.81-.05,1.62-.1,2.43l-.21,2.42A131.56,131.56,0,0,1,347.31,481a68,68,0,0,1-9.53,16.83,119.48,119.48,0,0,0,7.33-17.65l.74-2.27c.26-.75.51-1.5.73-2.27.45-1.52.94-3,1.37-4.57l1.29-4.59,1.17-4.62c.77-3.08,1.49-6.18,2.11-9.3.36-1.55.64-3.11.92-4.68l.43-2.34.38-2.35A95.38,95.38,0,0,0,355.67,424.13Z"/><path d="M352.29,394.43c.26,7.42-1.29,25.44-2.32,28.53" style="fill:#333"/><path d="M352.29,394.43a40.09,40.09,0,0,1,.67,7.2c0,2.4-.06,4.8-.22,7.19s-.46,4.78-.88,7.15c-.2,1.19-.45,2.37-.73,3.54A17.82,17.82,0,0,1,350,423c.2-2.4.19-4.78.33-7.16s.27-4.75.44-7.13.39-4.74.66-7.11S351.95,396.82,352.29,394.43Z"/><path d="M210.17,479.54c-1.34-4.83-2.73-9.64-4.23-14.41s-3-9.56-4.57-14.3c-3.18-9.49-6.54-18.92-10.22-28.22s-7.68-18.47-12-27.51c-2.27-4.46-4.42-9-6.92-13.31-2.31-4.45-5-8.64-7.6-12.95a231.42,231.42,0,0,1,15.22,25.91c4.45,9,8.48,18.18,12.21,27.48s7,18.79,10,28.35S207.9,469.79,210.17,479.54Z"/><path d="M251.88,380.83c1.27,7.43,2.16,14.93,2.9,22.43s1.17,15,1.47,22.58.18,15.1-.18,22.64a178,178,0,0,1-2.6,22.47c.41-3.75,1-7.47,1.17-11.24.38-3.74.47-7.51.66-11.27.21-7.52.21-15,0-22.57s-.68-15-1.24-22.55q-.41-5.63-1-11.26C252.72,388.32,252.3,384.57,251.88,380.83Z"/><path d="M238.61,458.85c.72,2.06,1.31,4.16,1.87,6.27s1,4.23,1.48,6.37.81,4.29,1,6.46a26.19,26.19,0,0,1,.15,6.55,23.83,23.83,0,0,0-.35-3.23c-.15-1.07-.35-2.14-.55-3.2L241,471.68c-.41-2.13-.86-4.25-1.25-6.39S238.93,461,238.61,458.85Z"/><path d="M296.33,497.79s5.82-103.12-6-172.15a112.1,112.1,0,0,0-2.56-12.79S260,302.32,239.34,283.3" style="fill:none;stroke:#000;stroke-miterlimit:10"/><path d="M181.21,337.64a20.06,20.06,0,0,0,2.26,9.83c2.7,5.56,4.17,19.23,4.17,19.23s1.7,13.07,3.69,17,11.45,36.8,14.35,52.06,3.7,11,9.38,52.56c.5,6.28,1.1,9.74,1.1,9.74" style="fill:none;stroke:#1d1d1b;stroke-miterlimit:10"/><path d="M238.61,498s-2.29-11.74-3.59-24.7-8.68-47.48-9.38-50.17-6.78-21.44-8.68-25-3.39-8.18-6.18-20.25-3.89-15.56-4-17.75a236.51,236.51,0,0,0-4.57-25.34" style="fill:none;stroke:#1d1d1b;stroke-miterlimit:10"/><path d="M231.46,354.17s.09-.18-.44,1.24-1.33,1.49-2.3.79-7.88-6.64-7.88-6.64" style="fill:none;stroke:#1d1d1b;stroke-miterlimit:10"/><path d="M233.13,287.13s.58,7.71.57,16.43" style="fill:#fff;stroke:#1d1e1c;stroke-miterlimit:10"/><ellipse cx="200.42" cy="374.88" rx="5.96" ry="5.95" style="fill:#cccbcb;stroke:#1d1e1c;stroke-miterlimit:10;stroke-width:0.5px"/><ellipse cx="201.21" cy="374.59" rx="5.23" ry="5.74" style="fill:#fff;stroke:#1d1e1c;stroke-miterlimit:10;stroke-width:0.6000000000000001px"/><ellipse cx="199.28" cy="373.23" rx="0.54" ry="0.82" style="fill:none;stroke:#1d1e1c;stroke-miterlimit:10;stroke-width:0.4px"/><ellipse cx="201.75" cy="373.07" rx="0.54" ry="0.82" style="fill:none;stroke:#1d1e1c;stroke-miterlimit:10;stroke-width:0.4px"/><ellipse cx="201.9" cy="376.39" rx="0.54" ry="0.82" style="fill:none;stroke:#1d1e1c;stroke-miterlimit:10;stroke-width:0.4px"/><ellipse cx="199.49" cy="376.51" rx="0.54" ry="0.82" style="fill:none;stroke:#1d1e1c;stroke-miterlimit:10;stroke-width:0.4px"/><ellipse cx="223.53" cy="470.14" rx="5.96" ry="5.95" style="fill:#cccbcb;stroke:#1d1e1c;stroke-miterlimit:10;stroke-width:0.5px"/><ellipse cx="224.33" cy="469.85" rx="5.23" ry="5.74" style="fill:#fff;stroke:#1d1e1c;stroke-miterlimit:10;stroke-width:0.6000000000000001px"/><ellipse cx="222.4" cy="468.49" rx="0.54" ry="0.82" style="fill:none;stroke:#1d1e1c;stroke-miterlimit:10;stroke-width:0.4px"/><ellipse cx="224.87" cy="468.33" rx="0.54" ry="0.82" style="fill:none;stroke:#1d1e1c;stroke-miterlimit:10;stroke-width:0.4px"/><ellipse cx="225.02" cy="471.65" rx="0.54" ry="0.82" style="fill:none;stroke:#1d1e1c;stroke-miterlimit:10;stroke-width:0.4px"/><ellipse cx="222.61" cy="471.77" rx="0.54" ry="0.82" style="fill:none;stroke:#1d1e1c;stroke-miterlimit:10;stroke-width:0.4px"/><path d="M294.2,77.55c1.88,9.59,1.6,19.71-2.49,24.92,5.94-3.23,8.12-9.87,9.42-12.91,1.9,4.74-1.82,17.21-5.34,21.52,6.54-4,12.11-11.53,8.73-32.81" style="stroke:#000;stroke-miterlimit:10"/><path d="M105.83,108.33s3.5-.23,5.14-5.45,11.42-.19,11.42-.19-4.12-4.44-7.81-5.51,5.7-4.43,8.15-3.43-1-2.63-1-2.63,15.63-3.27,32,12.42c7.86,7.55,33.84,2.7,33.84,2.7s-5,3.89-10.3,3.89c2.09,1.93.06,3.28.06,3.28s-3.3,1.55-8.54-.18V115a20.15,20.15,0,0,0,10.06-.54c4-1.49,13.11-9.47,14.76-11.08-4.91-.12-24.71,5.26-37,0,7.3-2.89,11.1-13.64,11.68-16.58s-.18-4.88,2.57-7.82,1.89-5.32,1.9-6.79-.43-2.19,1.46-4.56a13.29,13.29,0,0,0,2.53-6.14c-3.2,1.8-10.53,9.37-22,4.39,7.37,1.12,8.66.32,9.65.09-4.46-.45-13.17-2.15-17.07-4.91,3.68,1.14,24.53,5.53,33.85-6.24,2-1.83-14.52,12.79-40,1.91.79-.25,1.47-.49,2-.73,7.15-2.49,21.43-4.15,31.51-13.89,5.52-5.34,12.67-6.61,17.71-8,17.53-8.33,36,1.41,33.12.59s-11.11-.09-6.76.45,9.23,2.43,7.6,2.34-18.1,1.81-7.24,1.45,16.38,3.51,14,3.19c-7-1.46-24.69,2.27-12.83,1.46s19.49,3.09,14.94,3.09-12.83,2.11-6.5,2.44,14,8,13.16,7.83-12.13-.59-2.6,1.62S269,75.26,269,75.26c2,.51-2.12-5.42-7.59-8.18-6.3-3.18-15.6-9.63-16.29-13.45s-5.45-8-6-8.71-.27-5.17-.27-6.67-2.72-.82-3-2.32-.68-1.76-1.63-1.76-2.18-2.45.68-1.63,1.09-2.32,1.91-2.32,2.45-.41,2.45-1.5,2.18-2,3.81-.68,3.13.14,4.09-.54,5.59,3.41,10.22,6.95a1.12,1.12,0,0,0,.37.26l-.16.65a9.79,9.79,0,0,0,7.16,3.84c4.47.08,7,10.82,4.56,10.46a30.32,30.32,0,0,0-6.59-.24c-2,.13-1.64,1.93-.58,1.76s10.74-.22,13.54,1.16,6.83,3.66-.33,1.53-8.35.77-5.94.84,4.26.94,8.67,1.35,8.94,3.82,4.26,2.53-7.65-.07-4.21.79c11.65,3.32,25,20.73,17.7,14.16s-8.17-3.89-6.8-3,8.81,6,8.72,13.71c-.09,8.16-2.6,15.69,1.69,6a7.77,7.77,0,0,0,.64-2.39c.48-5.22,3.29,6.61,4.06,3.61.19-.76-1.35-4.15-3.57-8.82-1.41-3,.2-1.52.44-1.39.76.41,2.95,2.16-.06-3.16s-2.33-5.81-.56-4.67,4.12,1.53,1.89-.57C300.39,71.08,290.56,64,288.3,62.4c1.89,1.14,5.87-.93,7,.08s7.22,5.29,4.24,1.74.43-1.72,3.22.14,5.48,1.84,4.18.17.46-1.08,1.36-.24a4.89,4.89,0,0,0,2.09,1.1s-4.28-6.61,3.58,2c1.28,1.4-.05,6.22-.54,9.1-.74-1-1.31-1.78-1.31-1.78-1.62-1.88-2.83-1.62-1.88,0a69.81,69.81,0,0,1,4.31,8.08c1.21,3,3,.94,2.15-1.08a25,25,0,0,0-2.28-3.8c.93-2,1.83-6.55,3.46-4.28,5.52,7.71,7.19,5.31,3.38,0-10.87-15.2-14.55-26.46-9.54-21.66,12.71,12.16,23.4,13,20.43,11.42-18.34-10-19.67-15.73-19-15s3.52,3.23,5.75,3.77c1.13.27-2.12-2.8-3.5-4s-.81-2.93.56-2.08,5.78,6.52,6.37,7.93,2.86-1.36,1.89-2.16c-3.42-2.83-5.56-6.53-7.52-8.06-2.28-1.78-.38-4.19,2.3-2.48,1.14.72,3,1.17,5.36,2.28,0,.59-.5.92.73,1.36,1.55.69,4.91,1.55,3.44.43s-3.13-4.6-1.46-3.69c2.55,1.38,1.43-2.75,2.7-3.21a47.88,47.88,0,0,0-2.66-7.38c-.65-1.08-1.67-.44-1.41,1.2s1.88,3,1.07,5.16c-1.78-.43-4.28.34-.75,1.89s.26,1.38-.86.95-2.93-1-1.46.3c1.47.75.64,1,.66,1.64C289.72,24,315.21,35,314.31,33.07s-12.64-6.81-16-10.3-4.7-4-5.34-3.79-3.17.81-6.27-2.62S269.38,9,267.56,8.72s-5.2,3.32-.87,2.65,21,6.54,18.49,7.29-4.21,7.14-6.09,7.23-2.34-.49-6.56.79-4.78,2.08-5.68,3.3a23,23,0,0,0-2,3.93l-3.53-1.77c-.71-2.25-6.46-6-9-5.91-3,.15-5-2-7.7-2s-1.77-2.19-4.77-2.05-2.72-1.09,1.23-1.09a51.17,51.17,0,0,0,6.68-.27c1-.14-2.32-1.23.27-1.23h6.27c4.09,0,3.54-1.36.68-1.36H243.72c2.45-1.63-3.81-.41-2.45-1.36s-1.09-1.63-3.54-.68-12-1.23-3.41-1.63,12.13-2.72,8.31-3,1.09-1.23,1.09-1.23c14.58-.54,11-2,3.54-1.5S225.73,7.75,238,7.2s17.86-1,13.49-2c-43.28-10.69-73.9-2.46-86,4-11.42,6.14-5.7,3.71,3.53,1.18,9.86-.09,1.54,2-3.71,2.26s-10.86,3.62-1.31,1.9,12.62-.63,9,0-6.33,4.16-2.44,2.53S185,13.45,185,13.45c10.32-.63,11.13,2.08-5,2.9-15,2.62-7.6,2.81,5.16,2.53s12.49-3,19.45-3.17,7.79,1.9,1.91,2.08-9,5.73-19.82,6.09-12.13-.27-11.22-.45,5.07-1.18-.18-.9A26,26,0,0,0,164,26.16c-1.12.74,0,6.77,1.94,5,4.71-4.8,15.66-6.52,10-3.67s-8.78,7.92-7.24,7.29,4.52-3.08,3.08-.45-.81,3.08-.09,2.62,7.87-8.23,2.62-.18S152.6,49.16,150.66,49.55l-1,.2a28.48,28.48,0,0,1-15.5-1.57l.32-1.66s11.16,3.54,16.43.38a46.2,46.2,0,0,1-16.16-1.8l.25-1.3s14.32,2.67,18.9.24c0,0-9.58.84-16.48-5.81,0,0,5.6.85,7.68.39-.62-1.35-4.51-1.87-4.51-1.87s4.49-.85,5.27-1.43-2.32-1.19-2.32-1.19l2-1.59s-3.18-.74-4.91-1,2.61-1.46,4.12-1.78-2-2.36-2-2.36,7.34-9.89,4.92-8.52c-3.51,2-23.77,16.17-33.65,45.55C104.45,93,105.83,108.33,105.83,108.33Zm198.81-50.6c-.66,0-11.38-3.6-14.64-5.8-5.27-3.56-12.37-11.21-13.51-14s-1.78-6.88,2.27-.18,3.82,1.67,2.14-1.09-.24-5.63,2-2.3,4.65,4.66,2.85,1.29-1.46-3.24.53-1.26,2,.46.64-1.4-1.27-5,1.21-1.34,1.89,3.2,2.67,4,2.05,1,.61-1.47-1.88-3.13-2.26-3.93.72-3,2.38-1.13a148.6,148.6,0,0,0,16.71,13.39c5.58,3.68,5.19,7.77,3,5.56s-5.61-2.3-3,.24.1,1.24-1.56.13-1.08,2.55,1.47,4.06.11,1.42-2.27.18-1.88,1.49-1.1,1.9a5.67,5.67,0,0,1,2.26,1.4C308.14,57,305.31,57.77,304.65,57.73ZM275.93,40.41c.87,1.3,3.31,6.57,12.19,12.9,4.22,3,11.32,4.48,15.71,6.72s.6,2.85-1,2.37-14.05-4.26-17.48-7-11.2-10.08-12.94-14.67S275.06,39.1,275.93,40.41ZM135.13,84.91c-2.41-1.52-2.15-.42-7.37-4.45,12.81,1.85,23.26,2.66,24.6,3.05s5.75,3.08,8.38,5.3c0,0-.31,2.81-1.74,2.28s-3.91-1.68-5.8-1c1.49.81,5.92,4,5.75,4.91s-4.77,4.56-6.2,2.84-6.89-7.57-14.6-9.07c-10.42-2-9.81-3.35-9-3.58S137.54,86.42,135.13,84.91Zm-9.35-22s.17-2,13.38,2.18a89.44,89.44,0,0,0,28.3,3.79c1.5-.11,1.59,1.46.62,1.62s-3.93.88-1.67,1.93-1.38,2.07-1.9,2-.83,1,0,1.25,2.23,1,.32,1.54-3.71,1.84-3.83,5.63-.83,3.09-3.06,1.69c-2-1.29-2.21-2.29-7-3s-14-.79-15-.94.33-1.27,2-1.29,1-1.45.23-1.6c-2.86-.56-1.79-1.22.88-.52s2,.31,3,.15-.36-.94-2.69-1.39-2.93-1.79-.3-1.27,4.52-.76,1.47-1.53-9.54-1.86-10.3-2S127.41,69,135.4,70s-2.46-1.87-5.52-2.12-2.81-1.76.63-1.52S125.78,62.95,125.78,62.95Z" style="fill:#efefef"/><path d="M244.91,214.2a9.14,9.14,0,0,1-1.17-2.29,15.46,15.46,0,0,1-.67-2.47,13.64,13.64,0,0,1,0-5.1c.44,1.66.71,3.29,1,4.92S244.64,212.5,244.91,214.2Z"/><path d="M263.1,211.22c-1.05,0-2-.2-2.9-.32s-1.8-.21-2.69-.29-1.78-.12-2.71-.17a16.42,16.42,0,0,1-2.93-.33,9.36,9.36,0,0,1,2.76-1.23,9.07,9.07,0,0,1,3-.26A8.07,8.07,0,0,1,263.1,211.22Z"/><path d="M262.1,217.27a29.75,29.75,0,0,0-2,13" style="fill:none;stroke:#000;stroke-miterlimit:10"/><path d="M254.86,228.57c.86-3.94,1.19-6.43,3.7-10.17a1.86,1.86,0,0,1,1.93-1.16c3.42.09,11.78-.05,11.78-.05s13.07-3,10.77-11.46c-9.85-35.89-8.91-37.77-8.3-48,0,0,0,.44-.61,10.28,1.32,9.76,8.15,35.06,8.15,35.06" style="fill:none;stroke:#000;stroke-miterlimit:10"/><path d="M263.33,195.17s-4.93-2.61-6.94-2.61" style="fill:none;stroke:#000;stroke-miterlimit:10"/><path d="M260,196.08s-4.22-2-6.2-2.21" style="fill:none;stroke:#000;stroke-miterlimit:10"/><path d="M256.39,196.76s-2.92-1.7-3.82-1.59" style="fill:none;stroke:#000;stroke-miterlimit:10"/><path d="M253.76,198.23a10,10,0,0,0-3.68-1.47" style="fill:none;stroke:#000;stroke-miterlimit:10"/><path d="M265,238c-.77-2.95-4.28-2.19-5.88-.82-.74.64-3.21-.19-3.92-1s-5.41-3.38-12.66-1.13-17.77,2.66-19.41,2.76-3.1.82-1.6,1.94,18.53,11,24.79,13.69c12.25,5.36,13.65-4.92,12.81-9C261.26,243.81,266,241.77,265,238Z" style="fill:#d29f9b;stroke:#000;stroke-miterlimit:10"/><path d="M259.1,244.42s-2.33-2.86-5.17-2.14-7.2-2.45-33-3.37" style="fill:none;stroke:#000;stroke-miterlimit:10"/><path d="M203.9,498c-.58-3.11-1.3-6.18-2.1-9.24s-1.61-6.1-2.5-9.13c-1.76-6.06-3.65-12.09-5.71-18.05s-4.14-11.93-6.29-17.87L184,434.85c-1.12-3-2.26-5.9-3.35-8.87,1.3,2.88,2.54,5.79,3.81,8.69l3.57,8.79c2.3,5.89,4.48,11.83,6.51,17.82s3.89,12,5.5,18.17A144.71,144.71,0,0,1,203.9,498Z"/><rect id="SVGID" x="178.05" y="413.78" width="27.68" height="84.25" transform="translate(383.79 911.81) rotate(-180)" style="fill:none"/><path d="M.5,427v4.52a487.38,487.38,0,0,1,9.78,66.5l1-.06A487.52,487.52,0,0,0,.5,427Z" style="fill:#1d1d1b"/></g></g></svg>