<svg xmlns="http://www.w3.org/2000/svg" xmlns:xlink="http://www.w3.org/1999/xlink" viewBox="0 0 374.55 653.31"><defs><linearGradient id="Dégradé_sans_nom_15" x1="-754.61" y1="-475.02" x2="-754.61" y2="-605.85" gradientTransform="translate(499.94 956.69) rotate(43.64)" gradientUnits="userSpaceOnUse"><stop offset="0" stop-color="#fff" stop-opacity="0"/><stop offset="1" stop-color="#fff"/></linearGradient></defs><title>rocket_1</title><g id="Calque_2" data-name="Calque 2"><g id="Calque_1-2" data-name="Calque 1"><path d="M286.88,103.65l-6.11-5.89-6.11-5.89C241.47,107,214.94,166,214.94,166S273,137.36,286.88,103.65Z" style="fill:#d93046;fill-rule:evenodd"/><path d="M283.56,100.45l-2.79-2.69L278,95.06c-28,20.15-46.49,53.76-46.49,53.76S264.42,129.11,283.56,100.45Z" style="fill:#fefcff;fill-rule:evenodd"/><path d="M286.12,92.21l-8-6.19-3.5,5.83s3.72,4.06,5.88,6.14,6.34,5.65,6.34,5.65l5.71-3.7Z" style="fill:#474747"/><path d="M279.84,88.09c-13.91-6.9-33.48,5.22-33.48,5.22s18.25-30.62,47.26-30.65Z" style="fill:#8c94a8"/><path d="M290.47,98.34c7.39,13.66-4,33.65-4,33.65s29.95-19.33,28.95-48.32Z" style="fill:#8c94a8"/><path d="M374.55,0c-36.21,7.38-79.58,52-99,89.52,4.54.38,9.24,4.66,9.24,4.66s4.5,4.49,5.1,9C326.34,82,368.9,36.52,374.55,0Z" style="fill:#d0d0d6"/><path d="M285.94,95.53C310.51,56.36,374.55,0,374.55,0c-32.41,20-70.73,56.42-93.76,91.37Z" style="fill:url(#Dégradé_sans_nom_15)"/><circle cx="342.58" cy="33.7" r="10.37" transform="translate(80.44 256.82) rotate(-46.02)" style="fill:#fff;stroke:#5b5b5b;stroke-miterlimit:10;stroke-width:2px"/><path d="M305.47,72.16c-8.69,1.65-33.69,28.51-39.07,40.49C278.18,106.84,304.13,80.9,305.47,72.16Z" style="fill:#8c94a8"/><path d="M305.47,72.16c-1.34,8.75-27.29,34.69-39.07,40.49" style="fill:#76787c"/><path d="M200,182S24.79,362.63,10.24,626.62l-5.11-.33c-1.14,1.29-4,25.79-5.13,27H200c-2.47-2.09-5.64-19-8-21.61l-9.66,2.43C53.35,425.35,200,182,200,182Z" style="fill:#d7d3e2"/><path d="M182.36,634.13,192,631.7C50.14,460.89,200,182,200,182,189.12,198.26,48.64,458.64,182.36,634.13Z" style="fill:#c8c2da"/><path d="M200,182C104.72,280.46,17.1,455.39,5.13,626.29l8.36.33C26.53,364.83,200,182,200,182Z" style="fill:#c8c2da"/><path d="M66.86,450.71c-35.05,77.14-34.11,144-29.59,190.68L62,652.16C35.81,574,66.86,450.71,66.86,450.71Z" style="fill:#efebf7;fill-rule:evenodd"/><path d="M111.44,390.69c-47,103.63-30.83,176.75-10.4,249.17l33.13-4.07C72.19,541.88,111.44,390.69,111.44,390.69Z" style="fill:#efebf7;fill-rule:evenodd"/></g></g></svg>