<svg xmlns="http://www.w3.org/2000/svg" xmlns:xlink="http://www.w3.org/1999/xlink" viewBox="0 0 80.66 88.1"><defs><linearGradient id="Dégradé_sans_nom_15" x1="-157.51" y1="204.95" x2="-157.51" y2="137.08" gradientTransform="translate(288 3.97) rotate(42.47)" gradientUnits="userSpaceOnUse"><stop offset="0" stop-color="#fff" stop-opacity="0"/><stop offset="1" stop-color="#fff"/></linearGradient></defs><title>rocket</title><g id="Calque_2" data-name="Calque 2"><g id="Calque_3" data-name="Calque 3"><path d="M36.46,54.8l-3.25-3-3.25-3C13,57.14,0,88.1,0,88.1S29.71,72.47,36.46,54.8Z" style="fill:#d93046;fill-rule:evenodd"/><path d="M34.69,53.19l-1.48-1.36-1.48-1.36C17.5,61.3,8.35,79,8.35,79S25.16,68.31,34.69,53.19Z" style="fill:#fefcff;fill-rule:evenodd"/><path d="M35.91,48.88l-4.21-3.1L30,48.85s2,2.06,3.13,3.1,3.37,2.84,3.37,2.84l2.91-2Z" style="fill:#474747"/><path d="M32.59,46.83C25.29,43.44,15.3,50,15.3,50s9-16.12,24.09-16.54Z" style="fill:#8c94a8"/><path d="M38.24,52c4,7-1.63,17.5-1.63,17.5S51.88,59.07,51,44.05Z" style="fill:#8c94a8"/><path d="M80.66,0C62,4.21,39.93,27.83,30.23,47.47c2.36.15,4.84,2.32,4.84,2.32s2.38,2.28,2.74,4.62C56.52,43,78.11,19,80.66,0Z" style="fill:#d0d0d6"/><path d="M35.71,50.48C48,29.9,80.66,0,80.66,0,64.06,10.71,44.57,30,33,48.37Z" style="fill:url(#Dégradé_sans_nom_15)"/><circle cx="64.39" cy="17.77" r="5.38" transform="translate(7.8 53.26) rotate(-47.53)" style="fill:#fff"/><path d="M64.38,23.52a5.75,5.75,0,1,1,4.24-1.86h0A5.74,5.74,0,0,1,64.38,23.52Zm0-10.75a5,5,0,1,0,3.69,8.38h0a5,5,0,0,0-3.69-8.38Z" style="fill:#5b5b5b"/><path d="M45.67,38.22c-4.49,1-17.08,15.24-19.71,21.53C32,56.58,45.09,42.77,45.67,38.22Z" style="fill:#8c94a8"/><path d="M45.67,38.22C45.09,42.77,32,56.58,26,59.75" style="fill:#76787c"/></g></g></svg>