<svg xmlns="http://www.w3.org/2000/svg" viewBox="0 0 102.88 249.89"><title>rocket_smoke</title><g id="Calque_2" data-name="Calque 2"><g id="Calque_3" data-name="Calque 3"><path d="M87.52,249.89c9.69-4.27,17.17-9,15-12.94a37.55,37.55,0,0,1-3.76-3.69l-5,1.26C26.8,126.21,102.88,0,102.88,0S12,93.67,4.43,230.62l-2.65-.17c-.59.67-1.19,1.33-1.78,2l32.64,17.48Z" style="fill:#d7d3e2"/><path d="M102.88,0C53.45,51.05,8,141.79,1.78,230.44l4.34.17C12.89,94.82,102.88,0,102.88,0Z" style="fill:#c8c2da"/><path d="M93.72,234.51l5-1.26C25.13,144.65,102.88,0,102.88,0,97.23,8.41,24.35,143.48,93.72,234.51Z" style="fill:#c8c2da"/><path d="M56.93,108.23c-24.38,53.75-16,91.69-5.39,129.25,0,0,20.83,22.05,17.19-2.11C36.57,186.66,56.93,108.23,56.93,108.23Z" style="fill:#efebf7;fill-rule:evenodd"/><path d="M20.89,249.89H32.46a21.26,21.26,0,0,0-1.16-6c-13.6-40.54,2.51-104.5,2.51-104.5-18.18,40-17.69,74.69-15.35,98.91A46.68,46.68,0,0,0,20.89,249.89Z" style="fill:#efebf7;fill-rule:evenodd"/></g></g></svg>